<svg width="20" height="20" viewBox="0 0 20 20" fill="none" xmlns="http://www.w3.org/2000/svg">
<path d="M19.1013 18.5561L17.5274 15.9326C16.8005 14.7217 16.4164 13.3348 16.4164 11.9231V9.625C16.4164 6.72375 14.4804 4.26985 11.8331 3.47875V1.83335C11.8331 0.82225 11.0108 0 9.99974 0C8.98864 0 8.16639 0.82225 8.16639 1.83335V3.47875C5.51909 4.26985 3.58309 6.72375 3.58309 9.625V11.9231C3.58309 13.3348 3.19899 14.7207 2.47299 15.9317L0.899088 18.5552C0.813838 18.6973 0.811991 18.8733 0.893588 19.0172C0.975186 19.1611 1.12644 19.25 1.29144 19.25H18.7081C18.8731 19.25 19.0252 19.1611 19.1068 19.0181C19.1884 18.8751 19.1857 18.6973 19.1013 18.5561Z" fill="white"/>
</svg>
