<svg width="37" height="37" viewBox="0 0 37 37" fill="none" xmlns="http://www.w3.org/2000/svg">
<path d="M34.9107 2.81757C34.6696 2.57645 34.2799 2.57645 34.0387 2.81757C33.7976 3.05869 33.7976 3.44842 34.0387 3.68954C36.3426 5.99341 36.3426 9.74212 34.0387 12.0466C33.7976 12.2877 33.7976 12.6775 34.0387 12.9186C34.159 13.0388 34.3169 13.0993 34.4747 13.0993C34.6326 13.0993 34.7905 13.0388 34.9107 12.9186C37.6956 10.1343 37.6956 5.60244 34.9107 2.81757Z" fill="#EE2A7B"/>
<path d="M32.3135 4.22109C32.0724 3.97997 31.6827 3.97997 31.4416 4.22109C31.2005 4.46221 31.2005 4.85194 31.4416 5.09306C32.2044 5.85587 32.6243 6.87214 32.6243 7.95377C32.6243 9.03541 32.2044 10.0511 31.4416 10.8139C31.2005 11.055 31.2005 11.4447 31.4416 11.6858C31.5618 11.8061 31.7197 11.8665 31.8776 11.8665C32.0354 11.8665 32.1933 11.8061 32.3135 11.6858C33.3095 10.6905 33.8577 9.36471 33.8577 7.95377C33.8577 6.54284 33.3101 5.21639 32.3135 4.22109Z" fill="#EE2A7B"/>
<path d="M2.9611 3.68954C3.20222 3.44842 3.20222 3.05869 2.9611 2.81757C2.71999 2.57645 2.33025 2.57645 2.08914 2.81757C-0.695728 5.60244 -0.695728 10.1337 2.08914 12.9186C2.20939 13.0388 2.36725 13.0993 2.52512 13.0993C2.68299 13.0993 2.84085 13.0388 2.9611 12.9186C3.20222 12.6775 3.20222 12.2877 2.9611 12.0466C0.656621 9.74274 0.656621 5.99402 2.9611 3.68954Z" fill="#EE2A7B"/>
<path d="M5.5577 4.05091C5.31658 3.80979 4.92685 3.80979 4.68573 4.05091C3.68982 5.04621 3.1416 6.37204 3.1416 7.78298C3.1416 9.19391 3.68982 10.5197 4.68573 11.5157C4.80598 11.6359 4.96385 11.6963 5.12172 11.6963C5.27958 11.6963 5.43745 11.6359 5.5577 11.5157C5.79882 11.2745 5.79882 10.8848 5.5577 10.6437C4.79488 9.88088 4.37493 8.86461 4.37493 7.78298C4.37493 6.70134 4.79427 5.68569 5.5577 4.92288C5.7982 4.68238 5.7982 4.29203 5.5577 4.05091Z" fill="#EE2A7B"/>
<path d="M18.4999 33.9167C19.1811 33.9167 19.7333 33.3645 19.7333 32.6833C19.7333 32.0022 19.1811 31.45 18.4999 31.45C17.8188 31.45 17.2666 32.0022 17.2666 32.6833C17.2666 33.3645 17.8188 33.9167 18.4999 33.9167Z" fill="#EE2A7B"/>
<path d="M26.2668 0H10.733C9.23514 0 8.0166 1.21915 8.0166 2.71642V34.283C8.0166 35.7809 9.23514 37 10.733 37H26.2662C27.7647 37 28.9833 35.7808 28.9833 34.2836V2.71642C28.9833 1.21915 27.7647 0 26.2668 0ZM20.3499 1.85H20.9666C21.307 1.85 21.5833 2.12565 21.5833 2.46667C21.5833 2.80768 21.307 3.08333 20.9666 3.08333H20.3499C20.0095 3.08333 19.7333 2.80768 19.7333 2.46667C19.7333 2.12565 20.0095 1.85 20.3499 1.85ZM16.0333 1.85H18.4999C18.8403 1.85 19.1166 2.12565 19.1166 2.46667C19.1166 2.80768 18.8403 3.08333 18.4999 3.08333H16.0333C15.6929 3.08333 15.4166 2.80768 15.4166 2.46667C15.4166 2.12565 15.6929 1.85 16.0333 1.85ZM18.4999 35.15C17.1396 35.15 16.0333 34.0437 16.0333 32.6833C16.0333 31.323 17.1396 30.2167 18.4999 30.2167C19.8603 30.2167 20.9666 31.323 20.9666 32.6833C20.9666 34.0437 19.8603 35.15 18.4999 35.15ZM27.7499 28.3667H9.24993V4.93333H27.7499V28.3667Z" fill="#EE2A7B"/>
</svg>
