<svg width="208" height="159" viewBox="0 0 208 159" fill="none" xmlns="http://www.w3.org/2000/svg">
<path d="M144.453 58.3691C144.397 58.3688 144.34 58.3685 144.283 58.3685C134.846 58.3538 125.905 54.29 119.702 47.1777C110.461 36.5827 96.8406 29.9076 81.6624 29.9751C54.1136 30.097 31.3848 53.2427 31.7409 80.7894C32.0954 108.183 54.412 130.281 81.8901 130.281C89.6508 130.281 96.9991 128.517 103.557 125.369C109.212 122.655 115.95 123.371 120.929 127.185C127.37 132.118 135.421 135.054 144.157 135.069C165.187 135.104 182.45 117.976 182.572 96.9472C182.696 75.7214 165.65 58.4937 144.453 58.3691Z" fill="#EEEEEE"/>
<path d="M182.578 140.775C182.201 140.775 181.825 140.631 181.538 140.344L177.998 136.804C177.423 136.23 177.423 135.299 177.998 134.724L181.538 131.184C182.112 130.61 183.043 130.61 183.617 131.184C184.192 131.759 184.192 132.69 183.617 133.264L181.118 135.764L183.617 138.264C184.192 138.839 184.192 139.769 183.617 140.344C183.33 140.631 182.954 140.775 182.578 140.775Z" fill="#EE2A7B"/>
<path d="M196.332 140.775C195.956 140.775 195.579 140.631 195.292 140.344C194.718 139.769 194.718 138.839 195.292 138.264L197.792 135.764L195.292 133.264C194.718 132.69 194.718 131.759 195.292 131.184C195.866 130.61 196.798 130.61 197.372 131.184L200.912 134.724C201.486 135.299 201.486 136.23 200.912 136.804L197.372 140.344C197.085 140.631 196.708 140.775 196.332 140.775Z" fill="#EE2A7B"/>
<path d="M187.455 140.775C187.21 140.775 186.962 140.714 186.733 140.585C186.026 140.185 185.776 139.288 186.176 138.581L190.174 131.501C190.573 130.794 191.47 130.544 192.177 130.944C192.885 131.343 193.134 132.24 192.735 132.947L188.737 140.027C188.466 140.506 187.968 140.775 187.455 140.775Z" fill="#EE2A7B"/>
<path d="M76.8022 129.234C76.4251 129.234 76.0483 129.09 75.7605 128.802L72.5199 125.562C71.9445 124.986 71.9445 124.054 72.5199 123.479L75.7605 120.238C76.0369 119.962 76.4113 119.807 76.8022 119.807C77.1932 119.807 77.5676 119.962 77.8439 120.238L81.0846 123.479C81.3609 123.755 81.5159 124.129 81.5159 124.52C81.5159 124.911 81.3606 125.286 81.0846 125.562L77.8439 128.803C77.5561 129.09 77.179 129.234 76.8022 129.234ZM75.6444 124.52L76.8019 125.677L77.9594 124.52L76.8019 123.363L75.6444 124.52Z" fill="#C182F9"/>
<path d="M106.262 9.42726C105.449 9.42726 104.789 8.76765 104.789 7.95425C104.789 6.97941 103.996 6.18664 103.022 6.18664C102.208 6.18664 101.549 5.52703 101.549 4.71363C101.549 3.90023 102.208 3.24062 103.022 3.24062C103.997 3.24062 104.789 2.44755 104.789 1.47301C104.789 0.659614 105.449 0 106.262 0C107.076 0 107.735 0.659614 107.735 1.47301C107.735 2.44785 108.528 3.24062 109.503 3.24062C110.316 3.24062 110.976 3.90023 110.976 4.71363C110.976 5.52703 110.316 6.18664 109.503 6.18664C108.528 6.18664 107.735 6.97941 107.735 7.95425C107.735 8.76765 107.076 9.42726 106.262 9.42726Z" fill="#EE2A7B"/>
<path d="M85.7703 149.139C84.9569 149.139 84.2973 148.479 84.2973 147.666C84.2973 146.691 83.5042 145.898 82.5296 145.898C81.7163 145.898 81.0566 145.238 81.0566 144.425C81.0566 143.612 81.7163 142.952 82.5296 142.952C83.5045 142.952 84.2973 142.159 84.2973 141.184C84.2973 140.371 84.9569 139.711 85.7703 139.711C86.5837 139.711 87.2433 140.371 87.2433 141.184C87.2433 142.159 88.0361 142.952 89.0109 142.952C89.8243 142.952 90.4839 143.612 90.4839 144.425C90.4839 145.238 89.8243 145.898 89.0109 145.898C88.0361 145.898 87.2433 146.691 87.2433 147.666C87.2433 148.479 86.584 149.139 85.7703 149.139Z" fill="#EE2A7B"/>
<path d="M54.0134 58.7931C53.2 58.7931 52.5404 58.1335 52.5404 57.3201C52.5404 56.3453 51.7474 55.5525 50.7728 55.5525C49.9594 55.5525 49.2998 54.8929 49.2998 54.0795C49.2998 53.2661 49.9594 52.6065 50.7728 52.6065C51.7477 52.6065 52.5404 51.8134 52.5404 50.8389C52.5404 50.0255 53.2 49.3659 54.0134 49.3659C54.8268 49.3659 55.4864 50.0255 55.4864 50.8389C55.4864 51.8137 56.2795 52.6065 57.2541 52.6065C58.0674 52.6065 58.7271 53.2661 58.7271 54.0795C58.7271 54.8929 58.0674 55.5525 57.2541 55.5525C56.2792 55.5525 55.4864 56.3456 55.4864 57.3201C55.4864 58.1338 54.8268 58.7931 54.0134 58.7931Z" fill="#FFA052"/>
<path d="M9.19561 83.6619C10.6943 83.2838 14.6372 89.8319 15.4776 90.1541C16.325 90.4762 21.6756 87.3947 22.572 88.7814C23.5805 90.3361 18.6571 94.4961 18.391 95.8268C18.251 96.5271 23.1603 100.421 22.3409 102.221C21.6616 103.713 14.6302 100.029 13.6988 100.309C12.7673 100.589 9.27265 108.762 7.75992 107.992C6.51333 107.361 7.39575 99.1394 6.8635 98.2569C6.33124 97.3745 0.0562355 97.2274 0.000208679 95.4696C-0.0418115 94.0619 6.27521 93.0675 7.09461 91.9889C7.47979 91.4917 7.921 83.9841 9.19561 83.6619Z" fill="#FFCA55"/>
<path d="M129.108 9.54348C130.614 9.89365 131.118 17.5203 131.72 18.1926C132.323 18.8649 138.493 18.5778 138.661 20.2166C138.843 22.0585 132.568 23.5012 131.72 24.5657C131.279 25.1189 133.856 30.8337 132.302 32.0593C131.013 33.0748 126.447 26.5756 125.494 26.4006C124.535 26.2255 117.693 31.8912 116.698 30.5115C115.879 29.384 120.424 22.4717 120.361 21.4492C120.291 20.4197 114.779 17.4153 115.536 15.8255C116.138 14.5579 122.21 16.5608 123.435 15.9796C124.003 15.7204 127.827 9.24934 129.108 9.54348Z" fill="#FFCA55"/>
<path d="M21.8335 141.391C26.2007 141.661 27.9556 133.774 22.4697 130.444C16.9908 127.115 11.8744 140.781 21.8335 141.391Z" fill="#D3D3D3"/>
<path d="M59.4379 158.187C54.816 160.457 45.5255 157.249 39.6984 150.266C34.9897 144.627 32.0922 132.244 36.0328 130.135C42.7437 126.545 40.8774 134.956 52.1564 144.61C55.8237 147.743 66.575 154.68 59.4379 158.187Z" fill="#D3D3D3"/>
<path d="M201.833 120.764C201.833 120.764 180.375 111.778 186.785 102.2C190.129 97.2007 198.307 105.419 198.307 105.419C198.307 105.419 199.286 91.5701 205.337 94.5788C211.388 97.5875 205.775 119.331 201.833 120.764Z" fill="#EE2A7B"/>
<g clip-path="url(#clip0_117_4989)">
<path d="M59 120.599C59 122.112 60.2384 123.351 61.752 123.351H141.927C143.441 123.351 144.679 122.112 144.679 120.599V119.681L104.592 113.635L59 117.847V120.599Z" fill="#A2ABB8"/>
<path d="M62.6694 59.137H61.752C60.2384 59.137 59 60.3754 59 61.889V70.3286L104.592 74.5402L62.6694 59.137Z" fill="#A2ABB8"/>
<path d="M62.6694 70.6676L104.592 74.5402L144.68 70.3286V61.889C144.68 60.3754 143.441 59.137 141.928 59.137H62.6694V70.6676Z" fill="#C8D2DC"/>
<path d="M139.084 66.2005C139.895 66.2005 140.552 65.5433 140.552 64.7327C140.552 63.9221 139.895 63.265 139.084 63.265C138.273 63.265 137.616 63.9221 137.616 64.7327C137.616 65.5433 138.273 66.2005 139.084 66.2005Z" fill="#DE5791"/>
<path d="M133.58 66.2005C134.39 66.2005 135.047 65.5433 135.047 64.7327C135.047 63.9221 134.39 63.265 133.58 63.265C132.769 63.265 132.112 63.9221 132.112 64.7327C132.112 65.5433 132.769 66.2005 133.58 66.2005Z" fill="#A2ABB8"/>
<path d="M128.076 66.2005C128.886 66.2005 129.543 65.5433 129.543 64.7327C129.543 63.9221 128.886 63.265 128.076 63.265C127.265 63.265 126.608 63.9221 126.608 64.7327C126.608 65.5433 127.265 66.2005 128.076 66.2005Z" fill="#81A9C8"/>
<path d="M62.8308 117.847H59V70.3285H62.6694L62.8308 117.847Z" fill="#E9EDF1"/>
<path d="M62.731 117.502C62.9964 118.743 64.1044 119.681 65.4217 119.681H144.68V117.847L104.592 113.635L62.731 117.502Z" fill="#C8D2DC"/>
<path d="M62.6694 116.929C62.6694 117.251 62.7283 117.559 62.8309 117.847H144.68V70.3285H62.6694V116.929Z" fill="#F7F9FA"/>
<path d="M111.03 79.3184H110.112C108.599 79.3184 107.36 80.5568 107.36 82.0704V117.847H128.259L111.03 79.3184Z" fill="#E9EDF1"/>
<path d="M139.258 70.3285H144.679V117.847H139.258V70.3285Z" fill="#E9EDF1"/>
<path d="M112.864 83.1698L107.36 81.3365H69.7164C68.2028 81.3365 66.9644 82.575 66.9644 84.0886V96.5644C66.9644 98.078 68.2028 99.3164 69.7164 99.3164H107.36L112.864 97.4832V83.1698Z" fill="#EE2A7B"/>
<path d="M107.36 81.3365H114.699V99.3164H107.36V81.3365Z" fill="#198765"/>
<path d="M111.03 137.111C111.03 138.624 112.268 139.863 113.782 139.863H147.248C148.762 139.863 150 138.624 150 137.111V136.194L130.094 130.147L111.03 134.359V137.111Z" fill="#4E5A61"/>
<path d="M114.699 75.649H113.782C112.268 75.649 111.03 76.8875 111.03 78.4011V81.3365L131.929 85.5482L114.699 75.649Z" fill="#4E5A61"/>
<path d="M114.699 81.3365L131.928 85.5482L150 81.3365V78.4011C150 76.8875 148.761 75.649 147.248 75.649H114.699V81.3365Z" fill="#7E8B96"/>
<path d="M114.861 134.359H111.03V81.3365H114.699L114.861 134.359Z" fill="#E9EDF1"/>
<path d="M114.76 134.014C115.026 135.255 116.134 136.194 117.451 136.194H150V134.359L130.094 130.147L114.76 134.014Z" fill="#7E8B96"/>
<path d="M114.699 133.441C114.699 133.763 114.758 134.071 114.86 134.359H150V81.3365H114.699V133.441Z" fill="#F7F9FA"/>
<path d="M130.607 123.351C138.379 123.351 144.679 117.05 144.679 109.278C144.679 101.506 138.379 95.2049 130.607 95.2049C122.834 95.2049 116.534 101.506 116.534 109.278C116.534 117.05 122.834 123.351 130.607 123.351Z" fill="#EE2A7B"/>
<path d="M142.105 101.17L128.476 114.799L121.844 108.167C121.307 107.629 120.436 107.629 119.898 108.167C119.361 108.704 119.361 109.575 119.898 110.112L127.503 117.718C127.762 117.976 128.111 118.121 128.477 118.121C128.842 118.121 129.191 117.976 129.45 117.718L143.51 103.658C143.125 102.778 142.653 101.945 142.105 101.17Z" fill="#198765"/>
<path d="M130.487 114.978C129.95 115.515 129.078 115.515 128.541 114.978L121.804 108.241C121.267 107.703 121.267 106.832 121.804 106.295C122.341 105.757 123.213 105.757 123.75 106.295L129.514 112.059L143.707 97.8659C144.244 97.3287 145.116 97.3287 145.653 97.8659C146.19 98.4035 146.19 99.2746 145.653 99.812L130.487 114.978Z" fill="#EBF7E0"/>
<path d="M100.523 111.957C100.171 111.957 99.8182 111.823 99.5497 111.554C99.0123 111.017 99.0123 110.146 99.5497 109.608L100.21 108.948H84.0288C83.2689 108.948 82.6528 108.333 82.6528 107.572C82.6528 106.812 83.2689 106.196 84.0288 106.196H100.21L99.5497 105.537C99.0123 104.999 99.0123 104.128 99.5497 103.59C100.087 103.053 100.958 103.053 101.496 103.59L104.504 106.599C105.042 107.137 105.042 108.008 104.504 108.545L101.496 111.554C101.227 111.823 100.875 111.957 100.523 111.957Z" fill="#A2ABB8"/>
<path d="M101.84 95.5654C101.08 95.5654 100.464 94.9495 100.464 94.1894V92.7099L99.1824 93.4497C98.5243 93.8292 97.6827 93.6043 97.3027 92.946C96.9228 92.2879 97.1483 91.4464 97.8064 91.0664L99.0875 90.3265L97.8064 89.5867C97.1483 89.2068 96.9228 88.3652 97.3027 87.7071C97.6825 87.0488 98.5241 86.8237 99.1824 87.2035L100.464 87.9432V86.4637C100.464 85.7036 101.08 85.0877 101.84 85.0877C102.599 85.0877 103.216 85.7036 103.216 86.4637V87.9432L104.497 87.2035C105.155 86.8239 105.996 87.0488 106.376 87.7071C106.756 88.3652 106.531 89.2068 105.873 89.5867L104.592 90.3265L105.873 91.0662C106.531 91.4462 106.756 92.2877 106.376 92.9458C105.996 93.6041 105.155 93.8291 104.497 93.4495L103.216 92.7097V94.1892C103.216 94.9493 102.599 95.5654 101.84 95.5654Z" fill="white"/>
<path d="M88.9968 95.5654C88.2368 95.5654 87.6207 94.9495 87.6207 94.1894V92.7099L86.3396 93.4497C85.6815 93.8292 84.8399 93.6043 84.46 92.946C84.08 92.2879 84.3055 91.4464 84.9636 91.0664L86.2447 90.3265L84.9636 89.5867C84.3055 89.2068 84.08 88.3652 84.46 87.7071C84.8399 87.0488 85.6813 86.8237 86.3396 87.2035L87.6207 87.9432V86.4637C87.6207 85.7036 88.2368 85.0877 88.9968 85.0877C89.7567 85.0877 90.3728 85.7036 90.3728 86.4637V87.9432L91.6539 87.2035C92.312 86.8239 93.1536 87.0488 93.5335 87.7071C93.9135 88.3652 93.688 89.2068 93.0299 89.5867L91.7488 90.3265L93.0299 91.0662C93.688 91.4462 93.9135 92.2877 93.5335 92.9458C93.1534 93.6041 92.3118 93.8291 91.6539 93.4495L90.3728 92.7097V94.1892C90.3728 94.9493 89.7567 95.5654 88.9968 95.5654Z" fill="white"/>
<path d="M76.154 95.5654C75.3941 95.5654 74.778 94.9495 74.778 94.1894V92.7099L73.4968 93.4497C72.8387 93.8292 71.9972 93.6043 71.6172 92.946C71.2372 92.2879 71.4627 91.4464 72.1208 91.0664L73.402 90.3265L72.1208 89.5867C71.4627 89.2068 71.2372 88.3652 71.6172 87.7071C71.997 87.0488 72.8385 86.8237 73.4968 87.2035L74.778 87.9432V86.4637C74.778 85.7036 75.3941 85.0877 76.154 85.0877C76.9139 85.0877 77.53 85.7036 77.53 86.4637V87.9432L78.8111 87.2035C79.4692 86.8239 80.3108 87.0488 80.6908 87.7071C81.0707 88.3652 80.8453 89.2068 80.1872 89.5867L78.906 90.3265L80.1872 91.0662C80.8453 91.4462 81.0707 92.2877 80.6908 92.9458C80.3108 93.6041 79.4691 93.8291 78.8111 93.4495L77.53 92.7097V94.1892C77.53 94.9493 76.9139 95.5654 76.154 95.5654Z" fill="white"/>
</g>
<defs>
<clipPath id="clip0_117_4989">
<rect width="91" height="91" fill="white" transform="translate(59 54)"/>
</clipPath>
</defs>
</svg>
