<svg width="291" height="317" viewBox="0 0 291 317" fill="none" xmlns="http://www.w3.org/2000/svg">
<g filter="url(#filter0_i_117_4645)">
<path d="M149.476 0.0645992C75.2587 -2.12744 10.971 51.7247 1.25799 122.385C-9.36097 199.642 48.6877 272.142 121.006 280.289C281.09 298.32 297.225 214.023 289.434 127.112C283.565 61.6314 224.919 2.29251 149.476 0.0645992Z" fill="#F4F7FA"/>
</g>
<path d="M157.032 170.9C148.708 133.299 115.02 22.5552 184.115 29.4296C230.611 34.0555 199.402 71.9034 229.122 84.1149C258.841 96.3264 263.11 132.266 223.612 178.525C184.115 224.785 133.069 242.127 133.069 242.127C133.069 242.127 165.357 208.501 157.032 170.9Z" fill="#EE2A7B"/>
<g opacity="0.8">
<g opacity="0.8">
<path opacity="0.8" d="M126.04 246.416C126.12 246.416 126.202 246.398 126.278 246.36C201.918 208.54 191.664 129.479 185.537 82.2415C184.816 76.6871 184.136 71.4412 183.68 66.8593C181.499 44.9614 186.015 33.6661 190.188 28.0471C194.675 22.0059 199.734 21.0693 199.785 21.06C200.075 21.0098 200.27 20.7342 200.22 20.4441C200.171 20.1541 199.895 19.9584 199.605 20.0076C199.384 20.0445 194.136 20.9934 189.393 27.3277C185.076 33.0932 180.394 44.6499 182.617 66.9659C183.075 71.5631 183.757 76.8173 184.478 82.3788C190.569 129.334 200.763 207.924 125.801 245.405C125.538 245.537 125.431 245.858 125.562 246.121C125.656 246.308 125.844 246.416 126.04 246.416Z" fill="white"/>
</g>
<g opacity="0.8">
<path opacity="0.8" d="M188.037 109.288C188.214 109.288 188.386 109.201 188.487 109.042C188.547 108.949 194.555 99.6365 204.048 91.102C212.762 83.2674 226.286 74.4992 241.229 77.2159C241.518 77.2682 241.797 77.0766 241.851 76.7865C241.904 76.4965 241.711 76.2188 241.421 76.1655C229.25 73.952 216.074 78.8484 203.317 90.3241C193.722 98.956 187.649 108.372 187.59 108.466C187.431 108.714 187.503 109.044 187.751 109.203C187.839 109.26 187.939 109.288 188.037 109.288Z" fill="white"/>
</g>
<g opacity="0.8">
<path opacity="0.8" d="M187.036 162.728C187.188 162.728 187.337 162.665 187.443 162.54C187.526 162.442 195.833 152.738 208.56 144.147C220.266 136.244 238.218 127.69 257.271 131.817C257.559 131.881 257.842 131.696 257.905 131.408C257.967 131.12 257.784 130.836 257.496 130.774C238.067 126.566 219.823 135.251 207.94 143.278C195.098 151.951 186.712 161.752 186.628 161.85C186.438 162.074 186.465 162.412 186.69 162.602C186.791 162.686 186.914 162.728 187.036 162.728Z" fill="white"/>
</g>
<g opacity="0.8">
<path opacity="0.8" d="M185.103 82.6002C185.202 82.6002 185.301 82.5726 185.39 82.5162C185.638 82.3573 185.711 82.0274 185.552 81.7794C185.492 81.6851 179.419 72.2682 169.825 63.6374C157.068 52.1617 143.892 47.2662 131.72 49.4787C131.43 49.531 131.238 49.8098 131.291 50.0998C131.343 50.3898 131.623 50.5814 131.912 50.5292C146.855 47.8114 160.38 56.5806 169.094 64.4152C178.588 72.9507 184.595 82.262 184.654 82.3553C184.755 82.5131 184.927 82.6002 185.103 82.6002Z" fill="white"/>
</g>
<g opacity="0.8">
<path opacity="0.8" d="M188.911 144.783C189.001 144.783 189.092 144.76 189.175 144.713C189.431 144.568 189.521 144.242 189.375 143.986C189.31 143.873 182.857 132.624 172.595 123.58C166.544 118.248 160.368 114.707 154.238 113.057C146.542 110.986 138.914 111.902 131.565 115.782C131.304 115.919 131.204 116.242 131.341 116.504C131.479 116.764 131.801 116.864 132.063 116.726C144.984 109.904 158.384 112.479 171.888 124.38C182.019 133.307 188.383 144.402 188.446 144.512C188.546 144.686 188.726 144.783 188.911 144.783Z" fill="white"/>
</g>
<g opacity="0.8">
<path opacity="0.8" d="M179.304 191.754C179.393 191.754 179.484 191.731 179.567 191.684C179.824 191.538 179.914 191.212 179.767 190.956C179.703 190.844 173.249 179.594 162.987 170.55C156.937 165.218 150.76 161.678 144.631 160.028C136.935 157.957 129.306 158.873 121.957 162.753C121.697 162.89 121.597 163.213 121.734 163.474C121.871 163.736 122.194 163.835 122.455 163.697C135.377 156.875 148.776 159.45 162.281 171.351C172.411 180.278 178.775 191.372 178.839 191.483C178.938 191.656 179.118 191.754 179.304 191.754Z" fill="white"/>
</g>
</g>
<path d="M174.759 201.675C184.801 186.249 184.18 179.977 197.747 158.317C213.053 133.885 222.346 119.606 239.293 119.742C250.846 119.835 264.414 126.616 270.283 135.432C280.104 150.184 267.622 169.514 263.357 176.12C256.209 187.19 248.945 190.563 249.296 200.917C249.591 209.656 254.924 211.975 255.03 218.513C255.334 237.073 212.79 245.139 205.904 246.445C178.919 251.561 152.877 248.087 132.988 243.132C154.805 228.344 167.306 213.124 174.759 201.675Z" fill="url(#paint0_linear_117_4645)"/>
<g opacity="0.8">
<g opacity="0.8">
<path opacity="0.8" d="M128.767 244.358C128.793 244.358 128.818 244.356 128.844 244.352C152.265 240.494 173.843 231.933 192.979 218.907C208.285 208.487 222.071 195.205 233.953 179.428C254.179 152.571 261.975 127.439 262.05 127.188C262.125 126.941 261.986 126.68 261.739 126.605C261.492 126.529 261.231 126.67 261.156 126.916C261.08 127.165 253.322 152.165 233.185 178.892C214.616 203.54 181.413 234.745 128.692 243.429C128.437 243.471 128.265 243.712 128.307 243.966C128.344 244.196 128.543 244.358 128.767 244.358Z" fill="white"/>
</g>
<g opacity="0.8">
<path opacity="0.8" d="M232.896 180.515C232.972 180.515 233.048 180.496 233.119 180.458C233.345 180.335 233.43 180.051 233.306 179.824C233.18 179.592 220.772 156.286 223.429 124.191C223.451 123.933 223.259 123.707 223.002 123.686C222.74 123.666 222.518 123.857 222.498 124.114C219.816 156.5 232.358 180.036 232.485 180.271C232.57 180.425 232.73 180.515 232.896 180.515Z" fill="white"/>
</g>
<g opacity="0.8">
<path opacity="0.8" d="M234.471 180.445C237.1 180.445 242.666 180.233 249.664 178.764C258.695 176.869 272.043 172.434 284.354 162.067C284.552 161.901 284.576 161.606 284.41 161.408C284.244 161.21 283.949 161.186 283.751 161.352C271.6 171.584 258.421 175.968 249.505 177.843C239.833 179.877 232.948 179.482 232.879 179.477C232.619 179.461 232.4 179.658 232.383 179.915C232.367 180.172 232.564 180.395 232.821 180.411C232.841 180.411 233.423 180.445 234.471 180.445Z" fill="white"/>
</g>
<g opacity="0.8">
<path opacity="0.8" d="M224.434 216.52C235.594 216.52 252.948 213.297 277.11 200.04C277.336 199.916 277.419 199.631 277.294 199.406C277.17 199.179 276.886 199.096 276.66 199.221C249.633 214.051 231.245 216.231 220.579 215.449C209.055 214.603 203.833 210.212 203.781 210.168C203.586 210 203.29 210.022 203.122 210.216C202.953 210.411 202.975 210.706 203.17 210.875C203.386 211.063 208.614 215.485 220.406 216.373C221.645 216.465 222.988 216.52 224.434 216.52Z" fill="white"/>
</g>
<g opacity="0.8">
<path opacity="0.8" d="M242.665 261.606C242.902 261.606 243.106 261.426 243.13 261.186C243.155 260.928 242.968 260.7 242.711 260.673C211.966 257.577 195.568 248.926 187.224 242.214C178.25 234.994 176.47 228.476 176.453 228.412C176.388 228.162 176.132 228.013 175.883 228.076C175.633 228.142 175.484 228.397 175.548 228.646C175.621 228.924 177.425 235.53 186.639 242.941C195.081 249.733 211.646 258.483 242.618 261.603C242.635 261.605 242.65 261.606 242.665 261.606Z" fill="white"/>
</g>
<g opacity="0.8">
<path opacity="0.8" d="M201.213 212.783C201.33 212.783 201.447 212.74 201.537 212.652C201.722 212.473 201.729 212.178 201.55 211.991C201.506 211.946 197.157 207.354 194.097 198.573C191.273 190.466 189.002 177.027 194.219 159.034C194.291 158.786 194.148 158.526 193.9 158.455C193.653 158.382 193.393 158.525 193.321 158.773C188.027 177.032 190.351 190.69 193.232 198.932C196.363 207.889 200.694 212.45 200.877 212.64C200.968 212.735 201.09 212.783 201.213 212.783Z" fill="white"/>
</g>
</g>
<path d="M196.505 47.9416V304.511C196.505 308.346 193.296 311.26 189.395 310.985L187.493 310.849L186.878 310.794L64.3508 299.862C60.8245 299.612 57.7275 298.713 57.7275 295.08V52.0295C57.7275 48.3925 59.7259 50.8151 63.2522 50.7044L65.969 50.6204L186.802 41.5274C186.806 41.5274 186.806 41.5274 186.809 41.5274L189.394 41.3214C193.296 41.1964 196.505 44.1058 196.505 47.9416Z" fill="#97A6B7"/>
<path d="M192.59 47.9383V304.364C192.59 307.73 190.12 310.383 186.883 310.794C186.431 310.852 185.961 310.868 185.484 310.834L60.278 301.997C56.7547 301.747 53.8125 298.573 53.8125 294.939V52.0232C53.8125 48.3903 56.7526 45.3251 60.2759 45.2113L66.1757 45.0238L185.464 41.3212C185.915 41.3069 186.372 41.5272 186.802 41.5272C186.806 41.5272 186.806 41.5272 186.809 41.5272C190.079 41.8848 192.59 44.5544 192.59 47.9383Z" fill="#D8DEE8"/>
<path d="M57.9131 65.3908V290.555C57.9131 293.949 60.6032 296.91 63.9 297.136L181.567 305.205C185.191 305.453 188.163 302.736 188.163 299.166V62.258C188.163 58.6876 185.191 55.8448 181.567 55.9412L63.9 59.0617C60.6032 59.1488 57.9131 61.9967 57.9131 65.3908Z" fill="#F4F7FA"/>
<path d="M119.061 50.8531C119.061 52.1453 120.1 53.163 121.383 53.1271C122.667 53.0912 123.709 52.0121 123.709 50.7178C123.709 49.4235 122.667 48.4048 121.383 48.4438C120.1 48.4817 119.061 49.5608 119.061 50.8531Z" fill="white"/>
<path opacity="0.3" d="M196.504 276.924V304.51C196.504 308.345 193.296 311.259 189.394 310.984L187.492 310.848L186.877 310.793C186.426 310.852 185.959 310.867 185.482 310.833L60.2769 301.996C56.7537 301.746 53.8125 298.572 53.8125 294.938V52.0223C53.8125 48.3894 56.7526 45.3242 60.2759 45.2105L66.1757 45.0229C66.0578 46.8173 65.9973 48.6558 65.9451 50.4943C65.8682 53.3935 65.8682 56.2926 65.9195 59.0053C66.0476 66.184 66.5589 72.0776 67.0908 73.3514C77.1615 97.5367 107.15 102.414 119.782 124.272C129.317 140.772 122.136 157.536 117.625 174.267C104.446 223.154 139.024 253.964 180.946 270.288C183.445 271.26 185.85 272.237 188.162 273.213C189.67 273.851 191.15 274.49 192.581 275.128C193.923 275.727 195.081 276.325 196.504 276.924Z" fill="#D8DEE8"/>
<path d="M64.2242 149.717C64.7233 162.591 54.9375 173.077 42.3949 173.131C29.8832 173.185 19.3698 162.835 18.8851 150.019C18.4003 137.209 28.1164 126.738 40.6138 126.627C53.143 126.514 63.7261 136.85 64.2242 149.717Z" fill="url(#paint1_linear_117_4645)"/>
<path d="M63.7458 149.72C64.2337 162.322 54.6549 172.588 42.3767 172.641C30.1284 172.695 19.8353 162.562 19.3598 150.015C18.8853 137.473 28.3975 127.223 40.6325 127.114C52.8984 127.006 63.258 137.125 63.7458 149.72Z" fill="url(#paint2_linear_117_4645)"/>
<path opacity="0.8" d="M61.433 149.736C61.8696 161.027 53.2879 170.226 42.2867 170.277C31.3091 170.328 22.0808 161.247 21.6545 150C21.2282 138.757 29.7565 129.571 40.7239 129.476C51.7149 129.38 60.9965 138.449 61.433 149.736Z" fill="url(#paint3_linear_117_4645)"/>
<path opacity="0.5" d="M44.3505 165.878C43.05 163.347 43.3093 162.103 42.0109 152.622C40.0812 138.537 38.8084 136.177 37.7785 134.699C36.728 133.191 34.8691 131.077 31.4708 129.26C23.9939 132.916 19.0134 140.852 19.3598 150.015C19.8353 162.562 30.1283 172.694 42.3767 172.641C44.7594 172.631 47.0416 172.235 49.1681 171.513C47.2271 170.028 45.5341 168.182 44.3505 165.878Z" fill="url(#paint4_linear_117_4645)"/>
<path d="M61.3847 149.736C61.8212 161.027 53.2396 170.226 42.2384 170.277C31.2607 170.328 22.0334 161.247 21.6071 150C21.1808 138.758 29.7092 129.571 40.6755 129.476C51.6665 129.381 60.9481 138.45 61.3847 149.736Z" fill="url(#paint5_linear_117_4645)"/>
<path d="M34.3064 168.287C26.1326 166.724 24.3403 165.733 23.5122 163.976C22.3112 161.428 23.1843 157.36 25.2441 154.877C27.055 152.694 29.3208 152.294 29.2542 150.757C29.1999 149.492 27.6463 149.308 26.5077 146.922C26.1757 146.226 25.5321 144.876 25.8119 143.262C26.2218 140.899 28.3196 139.673 28.4897 139.577C30.6899 138.337 31.9484 139.796 33.6137 138.679C35.7032 137.278 34.7553 134.294 36.7168 133.442C38.1474 132.819 39.9807 133.828 40.4604 134.091C42.0611 134.972 41.893 135.853 43.2468 136.403C44.8393 137.05 45.6007 136.047 47.4567 136.463C48.9938 136.807 50.1088 137.911 51.0199 139.022C53.0715 141.524 52.0508 142.991 53.5675 146.075C55.7083 150.428 58.9528 149.975 59.5298 153.462C59.8321 155.287 59.0564 156.099 59.6518 158.896C60.0535 160.787 60.5608 161.135 60.6499 162.246C60.9082 165.439 57.1881 168.142 56.4954 168.615C52.1072 171.613 46.0793 170.538 34.3064 168.287Z" fill="url(#paint6_linear_117_4645)"/>
<path opacity="0.7" d="M47.7303 160.324C42.14 159.802 38.3862 164.917 36.9033 163.596C35.5003 162.347 39.4694 158.302 38.1105 153.455C36.7803 148.706 31.5856 147.655 31.9945 145.005C32.4577 142.004 39.4376 141.289 39.2726 139.062C39.1753 137.749 36.7004 137.453 36.2064 135.368C36.0722 134.802 36.1173 134.243 36.2566 133.72C34.8998 134.816 35.5167 137.405 33.6137 138.681C31.9484 139.798 30.6909 138.338 28.4897 139.579C28.3196 139.675 26.2218 140.901 25.8119 143.264C25.5321 144.878 26.1757 146.228 26.5077 146.924C27.6463 149.311 29.1999 149.494 29.2542 150.759C29.3208 152.296 27.055 152.696 25.2441 154.879C23.1843 157.361 22.3112 161.43 23.5122 163.978C24.3403 165.735 26.1337 166.726 34.3064 168.289C46.0793 170.54 52.1072 171.615 56.4954 168.618C58.2037 167.45 60.2246 165.431 60.6591 163.597C59.7932 164.365 58.9446 164.728 58.1535 164.854C54.4857 165.435 52.7979 160.796 47.7303 160.324Z" fill="url(#paint7_linear_117_4645)"/>
<path d="M24.1672 183.492C22.7898 179.908 23.6292 174.408 23.8065 173.247C24.4982 168.716 26.1307 165.939 26.7261 164.95C30.8284 158.144 37.1247 158.325 41.9208 158.462C44.3075 158.531 46.7917 158.528 49.8435 159.7C49.8435 159.7 52.2702 160.631 54.3301 162.148C60.5342 166.714 65.4881 181.402 60.4276 186.689C57.2282 190.031 53.9673 185.459 40.0526 186.969C34.5689 187.564 28.8556 188.71 25.4922 185.56C24.9389 185.041 24.5033 184.366 24.1672 183.492Z" fill="url(#paint8_linear_117_4645)"/>
<path d="M39.3998 150.006C39.3998 150.006 40.4113 157.541 35.2986 158.935C34.7113 159.095 34.531 159.866 34.9757 160.309L41.2824 166.588C41.6656 166.97 42.2703 166.958 42.6238 166.562L48.3904 160.1C48.7695 159.674 48.6035 158.982 48.0727 158.77C46.2188 158.032 42.9097 155.93 43.6025 150.43L39.3998 150.006Z" fill="url(#paint9_linear_117_4645)"/>
<path d="M36.2662 145.796C36.2683 145.878 37.6436 153.222 41.1873 153.278C44.5558 153.331 45.8379 147.933 46.256 145.408C46.3 144.979 46.3451 144.548 46.3892 144.118C46.1586 144.194 45.5888 144.344 44.9073 144.146C44.7526 144.1 43.7739 143.816 43.4101 142.977C43.0053 142.044 43.7493 141.312 43.325 140.496C43.0791 140.023 42.5851 139.798 42.207 139.683C42.4581 140.066 42.9459 140.922 42.6702 141.692C42.4847 142.21 41.9672 142.703 40.8112 142.993C37.5165 143.824 36.2334 144.137 36.2662 145.796Z" fill="url(#paint10_linear_117_4645)"/>
<path d="M37.1286 146.683C37.1286 146.683 35.3086 145.063 35.1497 146.038C34.8197 148.072 36.3754 149.218 37.2208 148.62C38.0673 148.021 37.1286 146.683 37.1286 146.683Z" fill="url(#paint11_linear_117_4645)"/>
<path d="M45.1941 146.783C45.1941 146.783 47.0326 145.2 47.1925 146.185C47.5266 148.24 45.9535 149.349 45.1009 148.725C44.2493 148.102 45.1941 146.783 45.1941 146.783Z" fill="url(#paint12_linear_117_4645)"/>
<path d="M180.389 91.7825C180.947 105.382 170.006 116.761 155.992 117.189C142.022 117.617 130.291 106.996 129.75 93.4744C129.209 79.9593 140.049 68.6005 154.003 68.0953C167.999 67.589 179.832 78.1905 180.389 91.7825Z" fill="url(#paint13_linear_117_4645)"/>
<path d="M179.853 91.8009C180.4 105.113 169.689 116.253 155.97 116.673C142.295 117.092 130.809 106.695 130.279 93.4569C129.749 80.2258 140.363 69.1047 154.023 68.6117C167.726 68.1157 179.307 78.4949 179.853 91.8009Z" fill="url(#paint14_linear_117_4645)"/>
<path opacity="0.8" d="M177.266 91.8869C177.755 103.814 168.161 113.796 155.869 114.176C143.611 114.555 133.313 105.238 132.837 93.3709C132.362 81.5088 141.878 71.5416 154.123 71.103C166.403 70.6623 176.779 79.9655 177.266 91.8869Z" fill="url(#paint15_linear_117_4645)"/>
<path opacity="0.5" d="M158.175 109.466C156.723 106.83 157.013 105.507 155.562 95.526C153.406 80.6993 151.985 78.2449 150.835 76.7149C149.663 75.1541 147.587 72.9784 143.793 71.1635C135.449 75.2566 129.891 83.7911 130.279 93.458C130.809 106.696 142.295 117.094 155.97 116.674C158.633 116.592 161.182 116.106 163.557 115.279C161.389 113.766 159.498 111.866 158.175 109.466Z" fill="url(#paint16_linear_117_4645)"/>
<path d="M177.266 92.1698C177.755 104.096 168.161 114.078 155.869 114.456C143.611 114.834 133.313 105.515 132.837 93.6476C132.362 81.7855 141.878 71.8193 154.123 71.3828C166.403 70.9442 176.779 80.2483 177.266 92.1698Z" fill="url(#paint17_linear_117_4645)"/>
<path d="M130.23 130.958C128.29 125.943 131.03 117.731 132.759 114.001C137.814 103.093 147.167 102.639 154.897 102.265C162.546 101.894 169.983 101.534 175.46 109.985C179.053 115.529 182.367 125.743 180.156 131.179C177.834 136.883 171.417 132.423 156.307 132.269C139.933 132.103 132.657 137.234 130.23 130.958Z" fill="url(#paint18_linear_117_4645)"/>
<path d="M162.116 103.358C162.116 104.745 158.653 106.434 154.397 106.465C150.159 106.495 146.734 104.868 146.734 103.491C146.734 102.113 150.158 102.699 154.397 102.66C158.653 102.622 162.116 101.97 162.116 103.358Z" fill="url(#paint19_linear_117_4645)"/>
<path d="M151.573 93.8218C150.408 93.8372 153.1 101.848 148.862 102.991C148.453 103.101 148.386 103.641 148.758 103.836C149.893 104.432 152.024 105.181 155.528 105.153C157.81 105.135 159.482 104.277 160.352 103.7C160.65 103.502 160.62 103.068 160.302 102.91C158.985 102.258 157.159 100.167 157.703 93.9468L151.573 93.8218Z" fill="url(#paint20_linear_117_4645)"/>
<path d="M148.037 84.244C148.054 84.3444 148.406 91.6666 150.112 95.3057C150.602 96.351 153.037 96.1952 154.616 96.0497C155.989 95.9226 158.145 96.3878 158.753 95.4502C161.201 91.6758 160.785 82.4116 160.785 82.4116C160.785 82.4116 159.531 79.3526 154.403 79.5391C149.298 79.7257 148.037 84.244 148.037 84.244Z" fill="url(#paint21_linear_117_4645)"/>
<path d="M149.226 88.1608C149.226 88.1608 148.161 86.9628 147.16 86.8173C146.159 86.6718 145.507 89.2317 146.872 90.8704C148.239 92.5111 149.821 91.1112 149.821 91.1112L149.226 88.1608Z" fill="url(#paint22_linear_117_4645)"/>
<path d="M159.656 87.9937C159.656 87.9937 160.732 86.7537 161.747 86.5744C162.763 86.394 163.426 88.954 162.039 90.6469C160.655 92.3378 159.056 90.9759 159.056 90.9759L159.656 87.9937Z" fill="url(#paint23_linear_117_4645)"/>
<path d="M162.462 80.7731C162.022 83.8587 160.864 86.762 160.81 87.3533C160.736 88.168 160.457 88.6292 159.975 88.7194C159.491 88.8095 159.902 83.0389 159.395 82.8596C158.889 82.6802 150.349 82.3984 149.822 83.5708C149.293 84.7421 149.525 90.1428 148.684 88.6599C148.684 88.6599 148.336 88.3842 147.741 87.0028C147.377 86.1563 146.539 83.911 146.28 82.0059C146.119 80.811 146.184 79.7462 146.735 79.2482C148.165 77.9528 162.055 73.2972 162.556 77.3123C162.692 78.413 162.63 79.6068 162.462 80.7731Z" fill="url(#paint24_linear_117_4645)"/>
<path opacity="0.3" d="M162.462 80.773C162.022 83.8587 160.864 86.762 160.81 87.3533C160.736 88.168 160.457 88.6291 159.976 88.7193C159.491 88.8095 159.902 83.0389 159.396 82.8595C158.889 82.6802 150.35 82.3984 149.822 83.5707C149.293 84.7421 149.525 90.1428 148.684 88.6599C148.684 88.6599 148.336 88.3842 147.742 87.0028C147.377 86.1563 146.54 83.911 146.28 82.0059C146.617 82.1852 147.165 82.217 148.036 81.7025C149.884 80.6111 151.832 80.5722 154.904 81.2537C157.717 81.8788 161.004 82.0971 162.462 80.773Z" fill="url(#paint25_linear_117_4645)"/>
<path d="M119.808 79.945C119.751 79.7431 119.59 79.6611 119.408 79.6652L32.468 81.4248C30.5885 81.4627 28.9048 83.2674 28.9048 85.5794V112.786C28.9048 115.098 30.5885 116.956 32.468 116.95L103.603 116.78C105.624 116.775 107.545 114.839 107.545 112.435V91.6165L119.747 80.4748C119.892 80.3437 119.866 80.1469 119.808 79.945Z" fill="url(#paint26_linear_117_4645)"/>
<path d="M98.6482 90.1673C98.6482 91.227 98.0979 92.094 97.2094 92.1063L35.784 92.9937C34.9488 93.006 34.2417 92.1841 34.2417 91.1583V91.1132C34.2417 90.0874 34.9775 89.244 35.8127 89.2297L97.2125 88.2264C98.101 88.212 98.6482 89.0616 98.6482 90.1202V90.1673Z" fill="url(#paint27_linear_117_4645)"/>
<path d="M98.6482 98.6393C98.6482 99.699 98.0979 100.563 97.2094 100.572L35.784 101.205C34.9488 101.214 34.2417 100.39 34.2417 99.3639V99.3188C34.2417 98.293 34.9775 97.4526 35.8127 97.4424L97.2125 96.6922C98.101 96.6809 98.6482 97.5336 98.6482 98.5922V98.6393Z" fill="url(#paint28_linear_117_4645)"/>
<path d="M69.4701 107.664C69.4701 108.708 68.8358 109.56 67.9729 109.565L35.7512 109.758C34.916 109.764 34.2427 108.936 34.2427 107.91V107.865C34.2427 106.839 34.9785 106.001 35.8137 105.994L67.977 105.739C68.8399 105.732 69.4701 106.573 69.4701 107.618V107.664Z" fill="url(#paint29_linear_117_4645)"/>
<path d="M66.028 132.401C66.0823 132.204 66.236 132.155 66.4082 132.156L156.216 132.618C158.342 132.629 159.853 134.457 159.853 136.921V165.917C159.853 168.382 158.342 170.401 156.216 170.352L81.5885 168.634C79.6147 168.589 78.0109 166.578 78.0109 164.21V143.691L66.1909 132.9C66.0525 132.774 65.9726 132.598 66.028 132.401Z" fill="url(#paint30_linear_117_4645)"/>
<path d="M154.515 142.92C154.515 141.832 153.778 140.942 152.84 140.934L88.0695 140.346C87.1902 140.337 86.5508 141.186 86.5508 142.238V142.285C86.5508 143.337 87.2118 144.197 88.091 144.207L152.839 144.919C153.777 144.93 154.516 144.056 154.516 142.968V142.92H154.515Z" fill="url(#paint31_linear_117_4645)"/>
<path d="M154.515 151.621C154.515 150.533 153.777 149.641 152.839 149.628L88.069 148.773C87.1898 148.761 86.5503 149.607 86.5503 150.659V150.705C86.5503 151.758 87.2113 152.621 88.0906 152.634L152.838 153.614C153.776 153.628 154.516 152.758 154.516 151.67V151.621H154.515Z" fill="url(#paint32_linear_117_4645)"/>
<path d="M123.557 160.113C123.557 159.041 123.007 158.162 122.096 158.145L88.0773 157.551C87.198 157.536 86.5493 158.379 86.5493 159.431V159.478C86.5493 160.531 87.2103 161.396 88.0896 161.412L122.093 162.072C123.003 162.09 123.556 161.231 123.556 160.159V160.113H123.557Z" fill="url(#paint33_linear_117_4645)"/>
<path d="M64.2242 258.337C64.7233 271.237 54.9375 281.196 42.3949 280.577C29.8832 279.959 19.3698 269.043 18.8851 256.2C18.4003 243.363 28.1164 233.416 40.6138 233.976C53.143 234.538 63.7261 245.443 64.2242 258.337Z" fill="url(#paint34_linear_117_4645)"/>
<path d="M63.7458 258.314C64.2337 270.943 54.6549 280.692 42.3767 280.086C30.1284 279.481 19.8353 268.795 19.3598 256.222C18.8853 243.654 28.3975 233.916 40.6325 234.465C52.8984 235.016 63.258 245.692 63.7458 258.314Z" fill="url(#paint35_linear_117_4645)"/>
<path opacity="0.8" d="M61.433 258.206C61.8696 269.52 53.2879 278.258 42.2867 277.717C31.3091 277.177 22.0808 267.601 21.6545 256.33C21.2282 245.065 29.7565 236.336 40.7239 236.831C51.7149 237.327 60.9965 246.896 61.433 258.206Z" fill="url(#paint36_linear_117_4645)"/>
<path opacity="0.5" d="M44.3505 273.429C43.05 270.828 43.3093 269.597 42.0109 260.046C40.0812 245.857 38.8084 243.429 37.7785 241.896C36.728 240.332 34.8691 238.119 31.4708 236.118C23.9939 239.372 19.0134 247.039 19.3598 256.221C19.8353 268.794 30.1283 279.479 42.3767 280.085C44.7594 280.203 47.0416 279.93 49.1681 279.322C47.2271 277.733 45.5341 275.797 44.3505 273.429Z" fill="url(#paint37_linear_117_4645)"/>
<path d="M61.3847 258.204C61.8212 269.518 53.2396 278.255 42.2384 277.715C31.2607 277.176 22.0334 267.599 21.6071 256.328C21.1808 245.063 29.7092 236.334 40.6755 236.829C51.6665 237.325 60.9481 246.894 61.3847 258.204Z" fill="url(#paint38_linear_117_4645)"/>
<path d="M34.3064 275.297C26.1326 273.295 24.3403 272.207 23.5122 270.406C22.3112 267.793 23.1843 263.771 25.2441 261.4C27.055 259.314 29.3208 259.036 29.2542 257.495C29.1999 256.228 27.6463 255.961 26.5077 253.513C26.1757 252.8 25.5321 251.415 25.8119 249.817C26.2218 247.475 28.3196 246.362 28.4897 246.275C30.6899 245.153 31.9484 246.68 33.6137 245.653C35.7032 244.365 34.7553 241.329 36.7168 240.582C38.1474 240.037 39.9807 241.144 40.4604 241.433C42.0611 242.399 41.893 243.272 43.2468 243.894C44.8393 244.626 45.6007 243.664 47.4567 244.18C48.9938 244.608 50.1088 245.771 51.0199 246.931C53.0715 249.543 52.0508 250.955 53.5675 254.122C55.7083 258.589 58.9528 258.311 59.5298 261.829C59.8321 263.67 59.0564 264.44 59.6518 267.271C60.0535 269.183 60.5608 269.558 60.6499 270.673C60.9082 273.88 57.1881 276.383 56.4954 276.819C52.1072 279.581 46.0793 278.182 34.3064 275.297Z" fill="url(#paint39_linear_117_4645)"/>
<path opacity="0.7" d="M47.7303 268.057C42.14 267.235 38.3862 272.148 36.9033 270.747C35.5003 269.422 39.4694 265.591 38.1105 260.67C36.7803 255.85 31.5856 254.52 31.9945 251.892C32.4577 248.915 39.4376 248.577 39.2726 246.341C39.1753 245.022 36.7004 244.592 36.2064 242.481C36.0722 241.908 36.1173 241.351 36.2566 240.835C34.8998 241.858 35.5167 244.481 33.6137 245.654C31.9484 246.681 30.6909 245.154 28.4897 246.276C28.3196 246.363 26.2218 247.476 25.8119 249.818C25.5321 251.416 26.1757 252.801 26.5077 253.514C27.6463 255.962 29.1999 256.229 29.2542 257.496C29.3208 259.038 27.055 259.317 25.2441 261.401C23.1843 263.772 22.3112 267.794 23.5122 270.407C24.3403 272.208 26.1337 273.295 34.3064 275.298C46.0793 278.183 52.1072 279.582 56.4954 276.821C58.2037 275.746 60.2246 273.835 60.6591 272.024C59.7932 272.744 58.9446 273.062 58.1535 273.145C54.4857 273.531 52.7979 268.802 47.7303 268.057Z" fill="url(#paint40_linear_117_4645)"/>
<path d="M24.1672 289.958C22.7898 286.3 23.6292 280.844 23.8065 279.694C24.4982 275.201 26.1307 272.511 26.7261 271.555C30.8284 264.969 37.1247 265.489 41.9208 265.883C44.3075 266.08 46.7917 266.211 49.8435 267.548C49.8435 267.548 52.2702 268.61 54.3301 270.237C60.5342 275.136 65.4881 290.091 60.4276 295.106C57.2282 298.275 53.9673 293.528 40.0526 294.29C34.5689 294.59 28.8556 295.428 25.4922 292.098C24.9389 291.548 24.5033 290.85 24.1672 289.958Z" fill="url(#paint41_linear_117_4645)"/>
<path d="M39.3998 257.29C39.3998 257.29 40.4113 264.879 35.2986 265.999C34.7113 266.128 34.531 266.889 34.9757 267.355L41.2824 273.973C41.6656 274.376 42.2703 274.396 42.6238 274.019L48.3904 267.866C48.7695 267.462 48.6035 266.76 48.0727 266.52C46.2188 265.682 42.9097 263.401 43.6025 257.938L39.3998 257.29Z" fill="url(#paint42_linear_117_4645)"/>
<path d="M36.2662 252.913C36.2683 252.995 37.6436 260.412 41.1873 260.659C44.5558 260.894 45.8379 255.565 46.256 253.062C46.3 252.635 46.3451 252.207 46.3892 251.779C46.1586 251.842 45.5888 251.963 44.9073 251.727C44.7526 251.674 43.7739 251.335 43.4101 250.478C43.0053 249.523 43.7493 248.831 43.325 247.991C43.0791 247.505 42.5851 247.254 42.207 247.117C42.4581 247.514 42.9459 248.396 42.6702 249.153C42.4847 249.66 41.9672 250.125 40.8112 250.354C37.5165 251.007 36.2334 251.252 36.2662 252.913Z" fill="url(#paint43_linear_117_4645)"/>
<path d="M37.1286 253.845C37.1286 253.845 35.3086 252.128 35.1497 253.094C34.8197 255.11 36.3754 256.339 37.2208 255.786C38.0673 255.235 37.1286 253.845 37.1286 253.845Z" fill="url(#paint44_linear_117_4645)"/>
<path d="M45.1941 254.38C45.1941 254.38 47.0326 252.895 47.1925 253.889C47.5266 255.961 45.9535 256.987 45.1009 256.317C44.2493 255.648 45.1941 254.38 45.1941 254.38Z" fill="url(#paint45_linear_117_4645)"/>
<path d="M180.389 206.65C180.947 220.28 170.006 231.07 155.992 230.745C142.022 230.421 130.291 219.169 129.75 205.618C129.209 192.074 140.049 181.298 154.003 181.543C167.999 181.79 179.832 193.028 180.389 206.65Z" fill="url(#paint46_linear_117_4645)"/>
<path d="M179.853 206.64C180.4 219.982 169.689 230.544 155.97 230.228C142.295 229.912 130.809 218.896 130.279 205.629C129.749 192.369 140.363 181.82 154.023 182.061C167.726 182.303 179.307 193.304 179.853 206.64Z" fill="url(#paint47_linear_117_4645)"/>
<path opacity="0.8" d="M177.266 206.586C177.755 218.54 168.161 228.006 155.869 227.725C143.611 227.445 133.313 217.573 132.837 205.681C132.362 193.793 141.878 184.338 154.123 184.557C166.403 184.779 176.779 194.639 177.266 206.586Z" fill="url(#paint48_linear_117_4645)"/>
<path opacity="0.5" d="M158.175 223.139C156.723 220.424 157.013 219.117 155.562 209.058C153.406 194.116 151.985 191.584 150.835 189.993C149.663 188.37 147.587 186.081 143.793 184.062C135.449 187.707 129.891 195.942 130.279 205.629C130.809 218.896 142.295 229.911 155.97 230.228C158.633 230.289 161.182 229.941 163.557 229.242C161.389 227.612 159.498 225.611 158.175 223.139Z" fill="url(#paint49_linear_117_4645)"/>
<path d="M177.266 206.869C177.755 218.823 168.161 228.288 155.869 228.005C143.611 227.723 133.313 217.851 132.837 205.957C132.362 194.07 141.878 184.616 154.123 184.837C166.403 185.06 176.779 194.922 177.266 206.869Z" fill="url(#paint50_linear_117_4645)"/>
<path d="M130.23 243.129C128.29 238.009 131.03 229.945 132.759 226.308C137.814 215.671 147.167 215.721 154.897 215.763C162.546 215.804 169.983 215.843 175.46 224.588C179.053 230.326 182.367 240.717 180.156 246.034C177.834 251.614 171.417 246.808 156.307 245.841C139.933 244.795 132.657 249.535 130.23 243.129Z" fill="url(#paint51_linear_117_4645)"/>
<path d="M162.116 217.242C162.116 218.63 158.653 220.133 154.397 219.935C150.159 219.737 146.734 217.926 146.734 216.549C146.734 215.171 150.158 215.94 154.397 216.129C158.653 216.321 162.116 215.856 162.116 217.242Z" fill="url(#paint52_linear_117_4645)"/>
<path d="M151.573 207.14C150.408 207.093 153.1 215.249 148.862 216.163C148.453 216.251 148.386 216.788 148.758 217.004C149.893 217.659 152.024 218.523 155.528 218.684C157.81 218.789 159.482 218.021 160.352 217.49C160.65 217.309 160.62 216.872 160.302 216.698C158.985 215.976 157.159 213.787 157.703 207.595L151.573 207.14Z" fill="url(#paint53_linear_117_4645)"/>
<path d="M148.037 197.372C148.054 197.473 148.406 204.815 150.112 208.545C150.602 209.617 153.037 209.592 154.616 209.531C155.989 209.478 158.145 210.059 158.753 209.154C161.201 205.512 160.785 196.224 160.785 196.224C160.785 196.224 159.531 193.097 154.403 193.008C149.298 192.921 148.037 197.372 148.037 197.372Z" fill="url(#paint54_linear_117_4645)"/>
<path d="M149.226 201.352C149.226 201.352 148.161 200.096 147.16 199.897C146.159 199.698 145.507 202.222 146.872 203.934C148.239 205.649 149.821 204.333 149.821 204.333L149.226 201.352Z" fill="url(#paint55_linear_117_4645)"/>
<path d="M159.656 201.746C159.656 201.746 160.732 200.565 161.747 200.44C162.763 200.315 163.426 202.91 162.039 204.528C160.655 206.144 159.056 204.696 159.056 204.696L159.656 201.746Z" fill="url(#paint56_linear_117_4645)"/>
<path d="M162.462 194.677C162.022 197.739 160.864 200.581 160.81 201.169C160.736 201.98 160.457 202.426 159.975 202.49C159.491 202.555 159.902 196.806 159.395 196.599C158.889 196.392 150.349 195.651 149.822 196.795C149.293 197.937 149.525 203.35 148.684 201.822C148.684 201.822 148.336 201.528 147.741 200.115C147.377 199.249 146.539 196.959 146.28 195.04C146.119 193.836 146.184 192.775 146.735 192.307C148.165 191.089 162.055 187.18 162.556 191.223C162.692 192.33 162.63 193.519 162.462 194.677Z" fill="url(#paint57_linear_117_4645)"/>
<path opacity="0.3" d="M162.462 194.677C162.022 197.739 160.864 200.581 160.81 201.169C160.736 201.98 160.457 202.426 159.976 202.49C159.491 202.555 159.902 196.806 159.396 196.599C158.889 196.392 150.35 195.651 149.822 196.795C149.293 197.937 149.525 203.35 148.684 201.822C148.684 201.822 148.336 201.528 147.742 200.115C147.377 199.249 146.54 196.959 146.28 195.04C146.617 195.238 147.165 195.298 148.036 194.831C149.884 193.839 151.832 193.906 154.904 194.752C157.717 195.527 161.004 195.922 162.462 194.677Z" fill="url(#paint58_linear_117_4645)"/>
<path d="M119.808 191.555C119.751 191.35 119.59 191.26 119.408 191.253L32.468 188.345C30.5885 188.283 28.9048 190.004 28.9048 192.316V219.523C28.9048 221.834 30.5885 223.774 32.468 223.872L103.603 227.525C105.624 227.629 107.545 225.794 107.545 223.39V202.571L119.747 192.085C119.892 191.961 119.866 191.76 119.808 191.555Z" fill="url(#paint59_linear_117_4645)"/>
<path d="M98.6482 200.649C98.6482 201.708 98.0979 202.541 97.2094 202.506L35.784 200.085C34.9488 200.052 34.2417 199.188 34.2417 198.163V198.118C34.2417 197.092 34.9775 196.289 35.8127 196.321L97.2125 198.626C98.101 198.659 98.6482 199.543 98.6482 200.603V200.649Z" fill="url(#paint60_linear_117_4645)"/>
<path d="M98.6482 209.12C98.6482 210.179 98.0979 211.01 97.2094 210.971L35.784 208.297C34.9488 208.261 34.2417 207.394 34.2417 206.368V206.323C34.2417 205.297 34.9775 204.498 35.8127 204.533L97.2125 207.091C98.101 207.128 98.6482 208.015 98.6482 209.074V209.12Z" fill="url(#paint61_linear_117_4645)"/>
<path d="M69.4701 216.579C69.4701 217.624 68.8358 218.434 67.9729 218.393L35.7512 216.849C34.916 216.809 34.2427 215.94 34.2427 214.914V214.869C34.2427 213.843 34.9785 213.047 35.8137 213.086L67.977 214.568C68.8399 214.608 69.4701 215.489 69.4701 216.533V216.579Z" fill="url(#paint62_linear_117_4645)"/>
<path d="M66.028 241.118C66.0823 240.923 66.236 240.883 66.4082 240.894L156.216 246.184C158.342 246.309 159.853 248.217 159.853 250.681V279.677C159.853 282.142 158.342 284.082 156.216 283.918L81.5885 278.186C79.6147 278.034 78.0109 275.938 78.0109 273.569V253.05L66.1909 241.624C66.0525 241.492 65.9726 241.313 66.028 241.118Z" fill="url(#paint63_linear_117_4645)"/>
<path d="M154.515 256.403C154.515 255.315 153.778 254.382 152.84 254.323L88.0695 250.25C87.1902 250.195 86.5508 251.008 86.5508 252.062V252.108C86.5508 253.161 87.2118 254.054 88.091 254.112L152.839 258.308C153.777 258.369 154.516 257.537 154.516 256.45V256.403H154.515Z" fill="url(#paint64_linear_117_4645)"/>
<path d="M154.515 265.105C154.515 264.016 153.777 263.081 152.839 263.017L88.069 258.678C87.1898 258.619 86.5503 259.43 86.5503 260.484V260.53C86.5503 261.582 87.2113 262.479 88.0906 262.539L152.838 267.003C153.776 267.068 154.516 266.24 154.516 265.153V265.105H154.515Z" fill="url(#paint65_linear_117_4645)"/>
<path d="M123.557 271.927C123.557 270.855 123.007 269.945 122.096 269.879L88.0773 267.455C87.198 267.393 86.5493 268.202 86.5493 269.255V269.301C86.5493 270.355 87.2103 271.253 88.0896 271.318L122.093 273.807C123.003 273.874 123.556 273.046 123.556 271.974V271.927H123.557Z" fill="url(#paint66_linear_117_4645)"/>
<path d="M62.4717 148.249C62.9708 161.122 53.185 171.608 40.6425 171.662C28.1308 171.717 17.6173 161.366 17.1326 148.55C16.6479 135.74 26.364 125.27 38.8614 125.158C51.3906 125.046 61.9737 135.381 62.4717 148.249Z" fill="url(#paint67_linear_117_4645)"/>
<path d="M61.9929 148.253C62.4807 160.855 52.9019 171.12 40.6238 171.174C28.3754 171.228 18.0824 161.095 17.6068 148.547C17.1324 136.006 26.6445 125.756 38.8796 125.647C51.1454 125.538 61.5051 135.656 61.9929 148.253Z" fill="url(#paint68_linear_117_4645)"/>
<path opacity="0.8" d="M59.6801 148.268C60.1167 159.56 51.535 168.758 40.5338 168.809C29.5562 168.861 20.3279 159.78 19.9015 148.533C19.4752 137.29 28.0036 128.103 38.971 128.008C49.962 127.913 59.2435 136.981 59.6801 148.268Z" fill="white"/>
<path opacity="0.5" d="M42.5976 164.41C41.2971 161.879 41.5564 160.635 40.258 151.153C38.3283 137.068 37.0555 134.708 36.0255 133.23C34.9751 131.723 33.1161 129.609 29.7179 127.792C22.241 131.447 17.2605 139.383 17.6068 148.546C18.0823 161.094 28.3754 171.226 40.6238 171.173C43.0065 171.162 45.2887 170.767 47.4151 170.044C45.4742 168.559 43.7812 166.715 42.5976 164.41Z" fill="white"/>
<path d="M32.5535 166.819C24.3797 165.256 22.5873 164.265 21.7593 162.509C20.5582 159.96 21.4314 155.893 23.4912 153.41C25.302 151.227 27.5679 150.826 27.5013 149.289C27.4469 148.024 25.8933 147.841 24.7548 145.454C24.4228 144.758 23.7792 143.409 24.059 141.795C24.4689 139.431 26.5666 138.205 26.7368 138.11C28.937 136.87 30.1954 138.329 31.8607 137.212C33.9503 135.811 33.0024 132.827 34.9638 131.974C36.3944 131.352 38.2278 132.36 38.7074 132.624C40.3082 133.504 40.1401 134.385 41.4938 134.936C43.0864 135.582 43.8478 134.579 45.7037 134.995C47.2409 135.339 48.3559 136.443 49.2669 137.554C51.3186 140.057 50.2979 141.523 51.8146 144.608C53.9554 148.96 57.1999 148.507 57.7769 151.995C58.0792 153.82 57.3034 154.631 57.8988 157.429C58.3005 159.32 58.8078 159.667 58.897 160.778C59.1552 163.971 55.4352 166.675 54.7424 167.147C50.3543 170.145 44.3264 169.071 32.5535 166.819Z" fill="url(#paint69_linear_117_4645)"/>
<path opacity="0.7" d="M45.9773 158.856C40.3871 158.334 36.6332 163.449 35.1503 162.128C33.7474 160.878 37.7164 156.834 36.3576 151.986C35.0274 147.237 29.8327 146.187 30.2416 143.537C30.7048 140.535 37.6847 139.821 37.5197 137.594C37.4223 136.28 34.9474 135.984 34.4535 133.9C34.3192 133.334 34.3643 132.774 34.5037 132.252C33.1469 133.347 33.7638 135.937 31.8607 137.213C30.1954 138.33 28.938 136.869 26.7368 138.111C26.5666 138.207 24.4689 139.433 24.059 141.796C23.7792 143.41 24.4228 144.759 24.7548 145.455C25.8933 147.843 27.4469 148.025 27.5013 149.29C27.5679 150.827 25.302 151.228 23.4912 153.411C21.4314 155.893 20.5582 159.961 21.7593 162.51C22.5873 164.266 24.3807 165.257 32.5535 166.82C44.3264 169.072 50.3543 170.147 54.7424 167.149C56.4508 165.982 58.4717 163.962 58.9062 162.129C58.0402 162.896 57.1917 163.259 56.4006 163.385C52.7328 163.967 51.045 159.329 45.9773 158.856Z" fill="url(#paint70_linear_117_4645)"/>
<path d="M22.4152 182.024C21.0379 178.44 21.8772 172.94 22.0545 171.779C22.7462 167.249 24.3787 164.471 24.9741 163.482C29.0764 156.677 35.3728 156.857 40.1688 156.995C42.5556 157.063 45.0397 157.06 48.0916 158.232C48.0916 158.232 50.5183 159.164 52.5781 160.681C58.7822 165.246 63.7361 179.935 58.6757 185.222C55.4763 188.563 52.2153 183.992 38.3006 185.501C32.8169 186.097 27.1037 187.242 23.7403 184.092C23.1859 183.574 22.7503 182.898 22.4152 182.024Z" fill="url(#paint71_linear_117_4645)"/>
<path d="M37.6469 148.538C37.6469 148.538 38.6583 156.072 33.5456 157.467C32.9584 157.627 32.778 158.397 33.2228 158.84L39.5294 165.119C39.9127 165.501 40.5173 165.489 40.8709 165.093L46.6374 158.631C47.0166 158.206 46.8506 157.513 46.3197 157.302C44.4659 156.563 41.1568 154.461 41.8496 148.961L37.6469 148.538Z" fill="url(#paint72_linear_117_4645)"/>
<path d="M34.5128 144.329C34.5149 144.411 35.8901 151.755 39.4339 151.81C42.8024 151.863 44.0844 146.466 44.5026 143.941C44.5466 143.511 44.5917 143.081 44.6358 142.65C44.4052 142.726 43.8354 142.877 43.1539 142.678C42.9992 142.633 42.0205 142.348 41.6567 141.51C41.2519 140.576 41.9959 139.844 41.5716 139.029C41.3257 138.555 40.8317 138.331 40.4536 138.215C40.7046 138.598 41.1925 139.454 40.9168 140.225C40.7313 140.742 40.2138 141.235 39.0578 141.525C35.7631 142.355 34.48 142.67 34.5128 144.329Z" fill="url(#paint73_linear_117_4645)"/>
<path d="M35.3767 145.215C35.3767 145.215 33.5566 143.595 33.3978 144.571C33.0678 146.604 34.6234 147.751 35.4689 147.152C36.3143 146.553 35.3767 145.215 35.3767 145.215Z" fill="url(#paint74_linear_117_4645)"/>
<path d="M43.4407 145.316C43.4407 145.316 45.2792 143.733 45.4391 144.717C45.7731 146.772 44.2001 147.882 43.3474 147.258C42.4958 146.635 43.4407 145.316 43.4407 145.316Z" fill="url(#paint75_linear_117_4645)"/>
<path d="M178.637 90.3149C179.194 103.914 168.254 115.293 154.239 115.722C140.269 116.149 128.539 105.528 127.997 92.0069C127.456 78.4918 138.297 67.133 152.25 66.6277C166.247 66.1205 178.079 76.722 178.637 90.3149Z" fill="url(#paint76_linear_117_4645)"/>
<path d="M178.101 90.3323C178.647 103.644 167.937 114.784 154.218 115.204C140.542 115.623 129.056 105.227 128.526 91.9884C127.997 78.7572 138.61 67.6361 152.271 67.1432C165.973 66.6482 177.556 77.0263 178.101 90.3323Z" fill="url(#paint77_linear_117_4645)"/>
<path opacity="0.8" d="M175.514 90.4184C176.003 102.345 166.409 112.328 154.116 112.708C141.859 113.087 131.56 103.77 131.085 91.9023C130.609 80.0403 140.126 70.0731 152.371 69.6345C164.651 69.1949 175.026 78.497 175.514 90.4184Z" fill="white"/>
<path opacity="0.5" d="M156.422 107.998C154.97 105.361 155.26 104.038 153.809 94.0575C151.654 79.2307 150.233 76.7763 149.083 75.2463C147.91 73.6855 145.834 71.5099 142.04 69.695C133.696 73.788 128.139 82.3225 128.526 91.9895C129.056 105.228 140.542 115.625 154.218 115.205C156.88 115.123 159.429 114.638 161.805 113.81C159.636 112.298 157.745 110.398 156.422 107.998Z" fill="white"/>
<path d="M128.478 129.491C126.538 124.476 129.277 116.264 131.006 112.534C136.061 101.626 145.415 101.172 153.145 100.798C160.794 100.427 168.231 100.067 173.707 108.517C177.3 114.062 180.615 124.276 178.403 129.711C176.082 135.415 169.665 130.955 154.555 130.802C138.181 130.635 130.905 135.767 128.478 129.491Z" fill="url(#paint78_linear_117_4645)"/>
<path d="M160.363 101.889C160.363 103.277 156.9 104.965 152.644 104.996C148.406 105.027 144.981 103.4 144.981 102.022C144.981 100.645 148.405 101.23 152.644 101.191C156.9 101.154 160.363 100.502 160.363 101.889Z" fill="url(#paint79_linear_117_4645)"/>
<path d="M149.82 92.3533C148.655 92.3686 151.347 100.379 147.11 101.522C146.701 101.633 146.633 102.173 147.005 102.368C148.141 102.963 150.271 103.712 153.775 103.684C156.057 103.666 157.73 102.808 158.6 102.231C158.897 102.034 158.867 101.599 158.55 101.441C157.233 100.789 155.407 98.6988 155.951 92.4783L149.82 92.3533Z" fill="url(#paint80_linear_117_4645)"/>
<path d="M146.284 82.7765C146.301 82.8769 146.653 90.1991 148.359 93.8382C148.849 94.8835 151.284 94.7277 152.863 94.5822C154.236 94.4551 156.392 94.9204 157 93.9827C159.448 90.2084 159.032 80.9442 159.032 80.9442C159.032 80.9442 157.778 77.8852 152.65 78.0717C147.545 78.2572 146.284 82.7765 146.284 82.7765Z" fill="url(#paint81_linear_117_4645)"/>
<path d="M147.474 86.6923C147.474 86.6923 146.409 85.4943 145.408 85.3487C144.406 85.2032 143.755 87.7632 145.12 89.4018C146.487 91.0425 148.069 89.6427 148.069 89.6427L147.474 86.6923Z" fill="url(#paint82_linear_117_4645)"/>
<path d="M157.903 86.5262C157.903 86.5262 158.979 85.2862 159.995 85.1068C161.01 84.9265 161.673 87.4864 160.287 89.1794C158.902 90.8703 157.304 89.5084 157.304 89.5084L157.903 86.5262Z" fill="url(#paint83_linear_117_4645)"/>
<path d="M160.709 79.3055C160.269 82.3912 159.111 85.2945 159.057 85.8858C158.983 86.7005 158.704 87.1616 158.222 87.2518C157.738 87.342 158.149 81.5714 157.642 81.392C157.136 81.2127 148.597 80.9309 148.069 82.1032C147.54 83.2746 147.772 88.6753 146.931 87.1924C146.931 87.1924 146.583 86.9167 145.988 85.5353C145.624 84.6888 144.786 82.4435 144.527 80.5384C144.366 79.3435 144.431 78.2787 144.982 77.7806C146.412 76.4853 160.302 71.8296 160.803 75.8448C160.94 76.9454 160.877 78.1393 160.709 79.3055Z" fill="url(#paint84_linear_117_4645)"/>
<path opacity="0.3" d="M160.708 79.3055C160.269 82.3912 159.111 85.2944 159.056 85.8857C158.983 86.7005 158.704 87.1616 158.222 87.2518C157.738 87.342 158.148 81.5713 157.642 81.392C157.136 81.2127 148.596 80.9308 148.069 82.1032C147.54 83.2746 147.771 88.6752 146.931 87.1924C146.931 87.1924 146.583 86.9167 145.988 85.5353C145.623 84.6888 144.786 82.4434 144.527 80.5383C144.864 80.7177 145.411 80.7495 146.282 80.235C148.131 79.1436 150.078 79.1047 153.151 79.7861C155.964 80.4113 159.25 80.6296 160.708 79.3055Z" fill="url(#paint85_linear_117_4645)"/>
<path d="M118.056 78.4764C117.998 78.2745 117.837 78.1925 117.655 78.1966L30.8792 79.9562C28.9998 79.9941 27.48 81.7988 27.48 84.1108V111.317C27.48 113.629 28.9987 115.487 30.8792 115.482L101.918 115.312C103.939 115.307 105.764 113.371 105.764 110.967V90.1478L117.98 79.0062C118.125 78.8761 118.113 78.6783 118.056 78.4764Z" fill="#EE2A7B"/>
<path d="M97.2246 88.6998C97.2246 89.7595 96.5093 90.6264 95.6208 90.6387L34.0991 91.5262C33.2638 91.5385 32.4614 90.7166 32.4614 89.6908V89.6457C32.4614 88.6199 33.2116 87.7765 34.0468 87.7621L95.6177 86.7588C96.5062 86.7445 97.2246 87.5941 97.2246 88.6527V88.6998Z" fill="white"/>
<path d="M97.2246 97.1708C97.2246 98.2304 96.5093 99.0943 95.6208 99.1036L34.0991 99.7369C33.2638 99.7451 32.4614 98.9211 32.4614 97.8953V97.8502C32.4614 96.8244 33.2116 95.9841 34.0468 95.9738L95.6177 95.2237C96.5062 95.2124 97.2246 96.065 97.2246 97.1237V97.1708Z" fill="white"/>
<path d="M67.6909 106.196C67.6909 107.24 67.0709 108.092 66.207 108.097L33.9781 108.291C33.1429 108.296 32.4624 107.468 32.4624 106.442V106.397C32.4624 105.371 33.2126 104.534 34.0478 104.527L66.2039 104.272C67.0668 104.264 67.6898 105.106 67.6898 106.15V106.196H67.6909Z" fill="white"/>
<path d="M64.2754 130.933C64.3297 130.735 64.4834 130.687 64.6556 130.688L154.45 131.149C156.576 131.16 158.074 132.989 158.074 135.452V164.449C158.074 166.913 156.576 168.932 154.45 168.883L79.8154 167.166C77.8417 167.12 76.2317 165.11 76.2317 162.741V142.222L64.425 131.432C64.2867 131.307 64.2211 131.131 64.2754 130.933Z" fill="url(#paint86_linear_117_4645)"/>
<path d="M153.092 141.452C153.092 140.364 152.189 139.475 151.252 139.466L86.3855 138.878C85.5063 138.87 84.7715 139.718 84.7715 140.771V140.817C84.7715 141.87 85.4458 142.729 86.3251 142.74L151.244 143.452C152.182 143.462 153.093 142.589 153.093 141.501V141.452H153.092Z" fill="white"/>
<path d="M153.091 150.154C153.091 149.066 152.188 148.173 151.252 148.161L86.3851 147.305C85.5058 147.294 84.771 148.139 84.771 149.192V149.238C84.771 150.291 85.4453 151.153 86.3246 151.166L151.244 152.146C152.181 152.16 153.092 151.29 153.092 150.202V150.154H153.091Z" fill="white"/>
<path d="M122.133 158.644C122.133 157.572 121.419 156.693 120.509 156.677L86.3933 156.082C85.514 156.067 84.77 156.91 84.77 157.963V158.009C84.77 159.063 85.4443 159.927 86.3236 159.944L120.499 160.604C121.409 160.621 122.132 159.762 122.132 158.69V158.644H122.133Z" fill="white"/>
<path d="M62.4717 256.869C62.9708 269.769 53.185 279.728 40.6425 279.109C28.1308 278.492 17.6173 267.575 17.1326 254.733C16.6479 241.896 26.364 231.948 38.8614 232.509C51.3906 233.07 61.9737 243.975 62.4717 256.869Z" fill="url(#paint87_linear_117_4645)"/>
<path d="M61.9929 256.847C62.4807 269.475 52.9019 279.224 40.6238 278.619C28.3754 278.014 18.0824 267.327 17.6068 254.754C17.1324 242.187 26.6445 232.448 38.8796 232.998C51.1454 233.549 61.5051 244.224 61.9929 256.847Z" fill="url(#paint88_linear_117_4645)"/>
<path opacity="0.8" d="M59.6801 256.738C60.1167 268.053 51.535 276.79 40.5338 276.249C29.5562 275.709 20.3279 266.133 19.9015 254.863C19.4752 243.597 28.0036 234.869 38.971 235.364C49.962 235.86 59.2435 245.427 59.6801 256.738Z" fill="white"/>
<path opacity="0.5" d="M42.5976 271.961C41.2971 269.36 41.5564 268.13 40.258 258.579C38.3283 244.389 37.0555 241.961 36.0255 240.428C34.9751 238.865 33.1161 236.651 29.7179 234.651C22.241 237.904 17.2605 245.572 17.6068 254.753C18.0823 267.326 28.3754 278.012 40.6238 278.617C43.0065 278.735 45.2887 278.463 47.4151 277.854C45.4742 276.266 43.7812 274.329 42.5976 271.961Z" fill="white"/>
<path d="M32.5535 273.83C24.3797 271.827 22.5873 270.74 21.7593 268.938C20.5582 266.325 21.4314 262.304 23.4912 259.932C25.302 257.847 27.5679 257.568 27.5013 256.028C27.4469 254.76 25.8933 254.494 24.7548 252.046C24.4228 251.332 23.7792 249.948 24.059 248.349C24.4689 246.007 26.5666 244.894 26.7368 244.807C28.937 243.685 30.1954 245.212 31.8607 244.185C33.9503 242.897 33.0024 239.862 34.9638 239.115C36.3944 238.569 38.2278 239.676 38.7074 239.965C40.3082 240.932 40.1401 241.805 41.4938 242.427C43.0864 243.158 43.8478 242.196 45.7037 242.713C47.2409 243.14 48.3559 244.303 49.2669 245.463C51.3186 248.075 50.2979 249.488 51.8146 252.654C53.9554 257.121 57.1999 256.844 57.7769 260.362C58.0792 262.202 57.3034 262.973 57.8988 265.803C58.3005 267.716 58.8078 268.091 58.897 269.206C59.1552 272.412 55.4352 274.916 54.7424 275.351C50.3543 278.113 44.3264 276.714 32.5535 273.83Z" fill="url(#paint89_linear_117_4645)"/>
<path opacity="0.7" d="M45.9773 266.588C40.3871 265.767 36.6332 270.679 35.1503 269.278C33.7474 267.953 37.7164 264.123 36.3576 259.202C35.0274 254.381 29.8327 253.052 30.2416 250.423C30.7048 247.446 37.6847 247.108 37.5197 244.872C37.4223 243.553 34.9474 243.124 34.4535 241.013C34.3192 240.44 34.3643 239.882 34.5037 239.367C33.1469 240.389 33.7638 243.012 31.8607 244.185C30.1954 245.212 28.938 243.685 26.7368 244.807C26.5666 244.894 24.4689 246.007 24.059 248.349C23.7792 249.948 24.4228 251.332 24.7548 252.046C25.8933 254.494 27.4469 254.76 27.5013 256.028C27.5679 257.569 25.302 257.848 23.4912 259.932C21.4314 262.304 20.5582 266.325 21.7593 268.938C22.5873 270.74 24.3807 271.826 32.5535 273.83C44.3264 276.714 50.3543 278.113 54.7424 275.352C56.4508 274.277 58.4717 272.366 58.9062 270.555C58.0402 271.276 57.1917 271.594 56.4006 271.677C52.7328 272.063 51.045 267.334 45.9773 266.588Z" fill="url(#paint90_linear_117_4645)"/>
<path d="M22.4152 288.489C21.0379 284.832 21.8772 279.376 22.0545 278.225C22.7462 273.732 24.3787 271.042 24.9741 270.086C29.0764 263.501 35.3728 264.02 40.1688 264.415C42.5556 264.612 45.0397 264.743 48.0916 266.079C48.0916 266.079 50.5183 267.142 52.5781 268.768C58.7822 273.668 63.7361 288.623 58.6757 293.637C55.4763 296.807 52.2153 292.06 38.3006 292.821C32.8169 293.122 27.1037 293.96 23.7403 290.629C23.1859 290.08 22.7503 289.382 22.4152 288.489Z" fill="url(#paint91_linear_117_4645)"/>
<path d="M37.6469 255.823C37.6469 255.823 38.6583 263.412 33.5456 264.532C32.9584 264.661 32.778 265.421 33.2228 265.887L39.5294 272.506C39.9127 272.908 40.5173 272.929 40.8709 272.552L46.6374 266.399C47.0166 265.994 46.8506 265.292 46.3197 265.052C44.4659 264.214 41.1568 261.934 41.8496 256.471L37.6469 255.823Z" fill="url(#paint92_linear_117_4645)"/>
<path d="M34.5128 251.445C34.5149 251.527 35.8901 258.944 39.4339 259.191C42.8024 259.426 44.0844 254.097 44.5026 251.595C44.5466 251.167 44.5917 250.74 44.6358 250.312C44.4052 250.374 43.8354 250.495 43.1539 250.259C42.9992 250.206 42.0205 249.868 41.6567 249.01C41.2519 248.055 41.9959 247.363 41.5716 246.524C41.3257 246.037 40.8317 245.786 40.4536 245.65C40.7046 246.046 41.1925 246.929 40.9168 247.685C40.7313 248.192 40.2138 248.658 39.0578 248.886C35.7631 249.539 34.48 249.784 34.5128 251.445Z" fill="url(#paint93_linear_117_4645)"/>
<path d="M35.3767 252.378C35.3767 252.378 33.5566 250.66 33.3978 251.626C33.0678 253.642 34.6234 254.872 35.4689 254.318C36.3143 253.766 35.3767 252.378 35.3767 252.378Z" fill="url(#paint94_linear_117_4645)"/>
<path d="M43.4407 252.913C43.4407 252.913 45.2792 251.428 45.4391 252.422C45.7731 254.494 44.2001 255.52 43.3474 254.849C42.4958 254.18 43.4407 252.913 43.4407 252.913Z" fill="url(#paint95_linear_117_4645)"/>
<path d="M178.637 205.182C179.194 218.812 168.254 229.602 154.239 229.278C140.269 228.954 128.539 217.701 127.997 204.151C127.456 190.607 138.297 179.83 152.25 180.076C166.247 180.322 178.079 191.56 178.637 205.182Z" fill="url(#paint96_linear_117_4645)"/>
<path d="M178.101 205.171C178.647 218.513 167.937 229.076 154.218 228.759C140.542 228.443 129.056 217.428 128.526 204.161C127.997 190.901 138.61 180.352 152.271 180.592C165.973 180.834 177.556 191.837 178.101 205.171Z" fill="url(#paint97_linear_117_4645)"/>
<path opacity="0.8" d="M175.514 205.119C176.003 217.072 166.409 226.538 154.116 226.257C141.859 225.978 131.56 216.107 131.085 204.213C130.609 192.325 140.126 182.871 152.371 183.09C164.651 183.31 175.026 193.171 175.514 205.119Z" fill="white"/>
<path opacity="0.5" d="M156.422 221.671C154.97 218.957 155.26 217.649 153.809 207.591C151.654 192.648 150.233 190.117 149.083 188.525C147.91 186.902 145.834 184.614 142.04 182.595C133.696 186.239 128.139 194.474 128.526 204.162C129.056 217.429 140.542 228.443 154.218 228.76C156.88 228.821 159.429 228.473 161.805 227.774C159.636 226.144 157.745 224.142 156.422 221.671Z" fill="white"/>
<path d="M128.478 241.66C126.538 236.54 129.277 228.476 131.006 224.839C136.061 214.203 145.415 214.253 153.145 214.294C160.794 214.335 168.231 214.374 173.707 223.12C177.3 228.857 180.615 239.249 178.403 244.566C176.082 250.146 169.665 245.339 154.555 244.373C138.181 243.327 130.905 248.067 128.478 241.66Z" fill="url(#paint98_linear_117_4645)"/>
<path d="M160.363 215.775C160.363 217.162 156.9 218.666 152.644 218.467C148.406 218.269 144.981 216.458 144.981 215.081C144.981 213.704 148.405 214.472 152.644 214.662C156.9 214.853 160.363 214.387 160.363 215.775Z" fill="url(#paint99_linear_117_4645)"/>
<path d="M149.82 205.671C148.655 205.624 151.347 213.781 147.11 214.695C146.701 214.783 146.633 215.32 147.005 215.535C148.141 216.191 150.271 217.055 153.775 217.216C156.057 217.32 157.73 216.553 158.6 216.022C158.897 215.84 158.867 215.404 158.55 215.23C157.233 214.507 155.407 212.318 155.951 206.126L149.82 205.671Z" fill="url(#paint100_linear_117_4645)"/>
<path d="M146.284 195.904C146.301 196.005 146.653 203.346 148.359 207.077C148.849 208.149 151.284 208.125 152.863 208.063C154.236 208.01 156.392 208.591 157 207.686C159.448 204.044 159.032 194.756 159.032 194.756C159.032 194.756 157.778 191.63 152.65 191.54C147.545 191.453 146.284 195.904 146.284 195.904Z" fill="url(#paint101_linear_117_4645)"/>
<path d="M147.474 199.884C147.474 199.884 146.409 198.629 145.408 198.429C144.406 198.23 143.755 200.754 145.12 202.467C146.487 204.181 148.069 202.865 148.069 202.865L147.474 199.884Z" fill="url(#paint102_linear_117_4645)"/>
<path d="M157.903 200.279C157.903 200.279 158.979 199.097 159.995 198.972C161.01 198.847 161.673 201.442 160.287 203.06C158.902 204.676 157.304 203.228 157.304 203.228L157.903 200.279Z" fill="url(#paint103_linear_117_4645)"/>
<path d="M160.709 193.209C160.269 196.271 159.111 199.113 159.057 199.701C158.983 200.511 158.704 200.957 158.222 201.022C157.738 201.086 158.149 195.337 157.642 195.13C157.136 194.923 148.597 194.182 148.069 195.326C147.54 196.469 147.772 201.882 146.931 200.354C146.931 200.354 146.583 200.06 145.988 198.645C145.624 197.779 144.786 195.489 144.527 193.571C144.366 192.366 144.431 191.306 144.982 190.837C146.412 189.619 160.302 185.71 160.803 189.753C160.94 190.861 160.877 192.052 160.709 193.209Z" fill="url(#paint104_linear_117_4645)"/>
<path opacity="0.3" d="M160.708 193.209C160.269 196.271 159.111 199.113 159.056 199.701C158.983 200.511 158.704 200.957 158.222 201.022C157.738 201.086 158.148 195.337 157.642 195.13C157.136 194.923 148.596 194.182 148.069 195.326C147.54 196.469 147.771 201.882 146.931 200.354C146.931 200.354 146.583 200.06 145.988 198.645C145.623 197.779 144.786 195.489 144.527 193.571C144.864 193.768 145.411 193.829 146.282 193.361C148.131 192.369 150.078 192.436 153.151 193.283C155.964 194.059 159.25 194.455 160.708 193.209Z" fill="url(#paint105_linear_117_4645)"/>
<path d="M118.056 190.086C117.998 189.881 117.837 189.791 117.655 189.785L30.8792 186.877C28.9998 186.814 27.48 188.536 27.48 190.848V218.054C27.48 220.366 28.9987 222.306 30.8792 222.403L101.918 226.057C103.939 226.16 105.764 224.326 105.764 221.922V201.103L117.98 190.616C118.125 190.492 118.113 190.291 118.056 190.086Z" fill="#EE2A7B"/>
<path d="M97.2246 199.18C97.2246 200.24 96.5093 201.072 95.6208 201.037L34.0991 198.617C33.2638 198.584 32.4614 197.72 32.4614 196.694V196.649C32.4614 195.623 33.2116 194.821 34.0468 194.853L95.6177 197.157C96.5062 197.19 97.2246 198.075 97.2246 199.134V199.18Z" fill="white"/>
<path d="M97.2246 207.652C97.2246 208.712 96.5093 209.542 95.6208 209.503L34.0991 206.829C33.2638 206.793 32.4614 205.927 32.4614 204.901V204.856C32.4614 203.83 33.2116 203.03 34.0468 203.065L95.6177 205.623C96.5062 205.66 97.2246 206.548 97.2246 207.606V207.652Z" fill="white"/>
<path d="M67.6909 215.112C67.6909 216.156 67.0709 216.967 66.207 216.926L33.9781 215.381C33.1429 215.341 32.4624 214.472 32.4624 213.446V213.401C32.4624 212.376 33.2126 211.579 34.0478 211.618L66.2039 213.1C67.0668 213.14 67.6898 214.021 67.6898 215.066V215.112H67.6909Z" fill="white"/>
<path d="M64.2754 239.65C64.3297 239.455 64.4834 239.415 64.6556 239.425L154.45 244.715C156.576 244.84 158.074 246.748 158.074 249.212V278.209C158.074 280.673 156.576 282.613 154.45 282.449L79.8154 276.718C77.8417 276.566 76.2317 274.469 76.2317 272.101V251.581L64.425 240.156C64.2867 240.024 64.2211 239.844 64.2754 239.65Z" fill="url(#paint106_linear_117_4645)"/>
<path d="M153.092 254.935C153.092 253.847 152.189 252.915 151.252 252.855L86.3855 248.783C85.5063 248.727 84.7715 249.541 84.7715 250.594V250.641C84.7715 251.693 85.4458 252.587 86.3251 252.644L151.244 256.841C152.182 256.901 153.093 256.07 153.093 254.983V254.935H153.092Z" fill="white"/>
<path d="M153.091 263.637C153.091 262.549 152.188 261.613 151.252 261.549L86.3851 257.21C85.5058 257.152 84.771 257.963 84.771 259.016V259.062C84.771 260.115 85.4453 261.011 86.3246 261.072L151.244 265.536C152.181 265.6 153.092 264.772 153.092 263.685V263.637H153.091Z" fill="white"/>
<path d="M122.133 270.458C122.133 269.386 121.419 268.476 120.509 268.41L86.3933 265.987C85.514 265.924 84.77 266.734 84.77 267.786V267.833C84.77 268.886 85.4443 269.785 86.3236 269.849L120.499 272.339C121.409 272.405 122.132 271.577 122.132 270.505V270.458H122.133Z" fill="white"/>
<path d="M212.798 212.795C220.08 209.239 234.282 222.119 241.194 234.457C243.949 239.373 247.182 245.146 246.389 252.008C244.982 264.173 231.487 274.845 212.911 278.407C212.388 276.539 211.865 274.672 211.342 272.805C213.373 270.69 216.411 267.636 220.293 264.136C226.255 258.761 227.481 258.403 227.767 256.706C228.703 251.148 214.409 246.495 209.325 236.722C204.955 228.32 207.204 215.527 212.798 212.795Z" fill="url(#paint107_linear_117_4645)"/>
<path d="M222.365 310.576C222.365 310.576 221.169 313.525 221.764 314.68C222.388 315.892 224.193 315.532 229.272 315.723C234.474 315.919 235.651 316.336 235.858 315.814C236.273 314.769 232.232 311.453 227.503 310.576C225.421 310.191 223.616 310.353 222.365 310.576Z" fill="url(#paint108_linear_117_4645)"/>
<path d="M223.436 306.167L226.264 310.576C226.264 310.576 224.961 311.862 222.746 311.383L219.635 307.206L223.436 306.167Z" fill="url(#paint109_linear_117_4645)"/>
<path opacity="0.3" d="M209.325 236.723C204.955 228.32 207.204 215.527 212.798 212.795C214.265 212.078 216.016 212.038 217.928 212.517C216.921 215.425 217.121 217.527 217.618 219.016C219.835 225.659 229.416 224.903 232.41 232.464C234.303 237.243 231.293 239.615 233.979 243.445C236.762 247.416 241.313 246.749 242.719 250.617C243.767 253.499 241.702 255.137 242.495 257.564C242.716 258.24 243.152 258.92 243.886 259.564C238.962 268.418 227.507 275.608 212.912 278.406C212.389 276.538 211.866 274.671 211.343 272.804C213.374 270.689 216.412 267.635 220.294 264.135C226.256 258.76 227.482 258.402 227.768 256.705C228.703 251.149 214.409 246.495 209.325 236.723Z" fill="url(#paint110_linear_117_4645)"/>
<path d="M217.767 215.432C217.452 228.166 217.629 241.934 218.551 256.592C219.728 275.307 221.935 292.498 224.631 307.946C223.433 308.327 222.235 308.709 221.038 309.09C208.718 297.086 205.031 286.527 204.022 278.931C203.309 273.562 204.388 273.1 203.426 266.38C201.593 253.583 196.809 249.201 193.449 237.22C192.189 232.723 190.785 225.93 190.874 217.075C199.838 216.527 208.803 215.98 217.767 215.432Z" fill="url(#paint111_linear_117_4645)"/>
<path d="M226.592 192.623C226.369 192.674 225.397 192.997 225.013 197.055C224.086 206.839 229.181 210.799 227.926 216.105C226.722 221.197 220.583 223.668 214.263 226.211C210.039 227.91 196.976 233.168 189.38 227.257C186.182 224.769 185.833 221.766 183.552 210.726C177.756 182.677 175.511 180.267 177.949 174.195C182.134 163.767 193.341 159.449 195.206 158.73C215.088 151.07 238.566 165.15 247.843 181.325C249.065 183.455 256.36 196.176 251.234 202.209C248.133 205.859 241.007 206.448 236.304 203.959C230.021 200.633 228.686 192.142 226.592 192.623Z" fill="url(#paint112_linear_117_4645)"/>
<path d="M248.322 200.042C248.385 200.042 248.447 200.029 248.508 200.001C248.733 199.899 248.831 199.633 248.73 199.408C248.56 199.035 244.456 190.227 234.972 186.752C234.739 186.665 234.482 186.785 234.397 187.018C234.312 187.251 234.431 187.508 234.664 187.593C243.785 190.936 247.873 199.692 247.914 199.78C247.989 199.945 248.152 200.042 248.322 200.042Z" fill="url(#paint113_linear_117_4645)"/>
<path d="M211.089 189.982C211.141 189.577 211.552 186.782 213.886 185.887C215.047 185.441 217.086 185.311 217.88 186.586C218.379 187.386 218.335 188.658 217.68 189.282C216.852 190.071 215.773 189.133 214.285 189.781C212.497 190.56 212.207 192.721 211.589 192.578C211.102 192.465 210.951 191.051 211.089 189.982Z" fill="url(#paint114_linear_117_4645)"/>
<path opacity="0.3" d="M190.947 170.608C192.202 174.023 188.437 176.984 190.051 180.693C192.364 186.009 201.556 183.281 204.843 188.537C208.738 194.766 199.818 204.986 203.498 208.483C205.175 210.077 207.113 208.036 212.014 209.156C218.996 210.75 221.094 216.268 224.341 215.43C225.362 215.167 226.6 214.241 227.641 211.387C228.095 212.97 228.312 214.473 227.926 216.104C226.722 221.196 220.583 223.667 214.263 226.21C210.039 227.909 196.976 233.167 189.38 227.256C186.182 224.768 185.833 221.765 183.552 210.725C177.756 182.676 175.511 180.266 177.949 174.194C179.278 170.882 181.315 168.189 183.536 166.03C188.325 167.089 190.291 168.82 190.947 170.608Z" fill="url(#paint115_linear_117_4645)"/>
<path d="M210.944 187.349C210.408 187.837 204.392 194.297 197.85 192.661C192.152 191.236 188.653 185.696 188.04 181.034C186.583 169.948 201.027 160.642 199.247 158.398C198.199 157.078 192.622 159.528 188.713 161.984C185.507 163.999 172.074 172.439 172.435 186.593C172.472 188.029 172.703 197.131 178.726 201.673C186.861 207.807 199.433 207.643 212.864 192.814C212.12 190.697 211.688 189.466 210.944 187.349Z" fill="url(#paint116_linear_117_4645)"/>
<path d="M240.309 173.765L233.834 194.452C233.622 195.13 233.004 195.601 232.293 195.626L223.825 196.857C222.733 196.896 221.897 195.896 222.129 194.828L227.84 173.654C228.003 172.902 228.656 172.358 229.425 172.334L238.658 171.591C239.81 171.555 240.654 172.666 240.309 173.765Z" fill="url(#paint117_linear_117_4645)"/>
<path d="M239.999 174.446L233.714 194.524C233.508 195.181 232.909 195.639 232.22 195.663L224.779 196.858C223.719 196.895 222.907 195.924 223.132 194.888L228.709 174.326C228.867 173.596 229.501 173.068 230.247 173.045L238.396 172.336C239.514 172.3 240.333 173.378 239.999 174.446Z" fill="url(#paint118_linear_117_4645)"/>
<path opacity="0.3" d="M223.131 194.887L228.46 175.242C228.855 175.437 229.426 175.739 229.963 176.199C232.062 178 233.264 181.258 232.571 183.864C231.688 187.187 228.297 187.29 227.827 190.055C227.461 192.22 229.216 194.511 230.666 195.912L224.778 196.858C223.718 196.895 222.906 195.923 223.131 194.887Z" fill="url(#paint119_linear_117_4645)"/>
<path d="M215.701 156.737C215.33 158.038 216.113 159.388 217.427 159.706C219.019 160.09 220.958 160.621 221.795 161.101C223.333 161.98 217.113 160.965 211.392 160.83C207.82 160.746 205.151 160.346 203.65 160.057C203.247 159.979 203.216 159.416 203.606 159.289C205.036 158.824 207.36 158.139 209.325 157.892C211.756 157.587 214.365 152.22 214.365 152.22L216.449 154.113L215.701 156.737Z" fill="url(#paint120_linear_117_4645)"/>
<path d="M236.402 188.505L236.006 187.858C235.657 186.515 234.367 185.639 232.988 185.809L230.91 186.065C230.259 186.145 229.82 186.764 229.954 187.405C230.148 188.333 230.645 189.443 231.921 189.357C234.09 189.21 235.476 192.371 235.476 192.371L236.309 191.199C236.876 190.4 236.912 189.34 236.402 188.505Z" fill="url(#paint121_linear_117_4645)"/>
<path d="M220.345 153.987C222.143 153.72 224.157 152.21 224.117 150.96C224.063 149.245 220.14 148.305 218.16 147.831C216.172 147.355 215.33 147.527 214.761 147.96C214.18 148.403 213.799 149.194 213.674 149.877C213.606 150.249 213.602 150.762 213.666 151.781C213.722 152.687 213.706 152.647 213.729 152.915C213.786 153.557 213.961 154.688 214.587 156.254C214.848 155.968 215.194 155.626 215.629 155.289C215.797 155.16 216.461 154.658 217.216 154.354C218.513 153.832 219.255 154.149 220.345 153.987Z" fill="url(#paint122_linear_117_4645)"/>
<path d="M213.632 154.507C213.632 154.507 213.749 157.011 216.108 158.11C218.22 159.094 221.024 154.684 220.253 153C219.996 152.438 219.199 151.826 218.383 151.638C217.9 151.526 217.665 151.622 216.88 151.425C216.156 151.242 216.016 151.074 215.736 151.13C215.386 151.2 214.941 151.598 214.608 153.153C214.434 152.547 214.05 152.139 213.633 152.114C213.566 152.11 213.374 152.129 213.217 152.23C212.645 152.597 212.757 153.525 213.632 154.507Z" fill="url(#paint123_linear_117_4645)"/>
<defs>
<filter id="filter0_i_117_4645" x="0" y="0" width="291" height="290.745" filterUnits="userSpaceOnUse" color-interpolation-filters="sRGB">
<feFlood flood-opacity="0" result="BackgroundImageFix"/>
<feBlend mode="normal" in="SourceGraphic" in2="BackgroundImageFix" result="shape"/>
<feColorMatrix in="SourceAlpha" type="matrix" values="0 0 0 0 0 0 0 0 0 0 0 0 0 0 0 0 0 0 127 0" result="hardAlpha"/>
<feOffset dy="8"/>
<feGaussianBlur stdDeviation="6"/>
<feComposite in2="hardAlpha" operator="arithmetic" k2="-1" k3="1"/>
<feColorMatrix type="matrix" values="0 0 0 0 0.729167 0 0 0 0 0.729167 0 0 0 0 0.729167 0 0 0 0.25 0"/>
<feBlend mode="normal" in2="shape" result="effect1_innerShadow_117_4645"/>
</filter>
<linearGradient id="paint0_linear_117_4645" x1="265.008" y1="95.4164" x2="134.06" y2="348.06" gradientUnits="userSpaceOnUse">
<stop stop-color="#FFC444"/>
<stop offset="0.9964" stop-color="#F36F56"/>
</linearGradient>
<linearGradient id="paint1_linear_117_4645" x1="63.0243" y1="129.516" x2="2.29931" y2="187.114" gradientUnits="userSpaceOnUse">
<stop stop-color="#AB316D"/>
<stop offset="1" stop-color="#792D3D"/>
</linearGradient>
<linearGradient id="paint2_linear_117_4645" x1="35.5133" y1="127.772" x2="47.5942" y2="171.984" gradientUnits="userSpaceOnUse">
<stop stop-color="#AB316D"/>
<stop offset="1" stop-color="#792D3D"/>
</linearGradient>
<linearGradient id="paint3_linear_117_4645" x1="21.6388" y1="149.876" x2="61.4489" y2="149.876" gradientUnits="userSpaceOnUse">
<stop stop-color="#AB316D"/>
<stop offset="1" stop-color="#792D3D"/>
</linearGradient>
<linearGradient id="paint4_linear_117_4645" x1="19.3431" y1="150.951" x2="49.1677" y2="150.951" gradientUnits="userSpaceOnUse">
<stop stop-color="#AB316D"/>
<stop offset="1" stop-color="#792D3D"/>
</linearGradient>
<linearGradient id="paint5_linear_117_4645" x1="21.5919" y1="149.876" x2="61.4001" y2="149.876" gradientUnits="userSpaceOnUse">
<stop stop-color="#AB316D"/>
<stop offset="1" stop-color="#792D3D"/>
</linearGradient>
<linearGradient id="paint6_linear_117_4645" x1="54.49" y1="131.187" x2="44.4564" y2="150.836" gradientUnits="userSpaceOnUse">
<stop stop-color="#AB316D"/>
<stop offset="1" stop-color="#792D3D"/>
</linearGradient>
<linearGradient id="paint7_linear_117_4645" x1="54.5954" y1="131.084" x2="44.53" y2="150.795" gradientUnits="userSpaceOnUse">
<stop stop-color="#AB316D"/>
<stop offset="1" stop-color="#792D3D"/>
</linearGradient>
<linearGradient id="paint8_linear_117_4645" x1="46.2019" y1="202.903" x2="40.4868" y2="161.468" gradientUnits="userSpaceOnUse">
<stop stop-color="#AB316D"/>
<stop offset="1" stop-color="#792D3D"/>
</linearGradient>
<linearGradient id="paint9_linear_117_4645" x1="42.0304" y1="167.646" x2="41.2223" y2="150.11" gradientUnits="userSpaceOnUse">
<stop stop-color="#AB316D"/>
<stop offset="1" stop-color="#792D3D"/>
</linearGradient>
<linearGradient id="paint10_linear_117_4645" x1="41.1355" y1="152.241" x2="41.4444" y2="140.414" gradientUnits="userSpaceOnUse">
<stop stop-color="#AB316D"/>
<stop offset="1" stop-color="#792D3D"/>
</linearGradient>
<linearGradient id="paint11_linear_117_4645" x1="36.2428" y1="150.955" x2="36.5258" y2="140.121" gradientUnits="userSpaceOnUse">
<stop stop-color="#AB316D"/>
<stop offset="1" stop-color="#792D3D"/>
</linearGradient>
<linearGradient id="paint12_linear_117_4645" x1="45.8888" y1="151.323" x2="46.1701" y2="140.551" gradientUnits="userSpaceOnUse">
<stop stop-color="#AB316D"/>
<stop offset="1" stop-color="#792D3D"/>
</linearGradient>
<linearGradient id="paint13_linear_117_4645" x1="159.255" y1="88.3267" x2="162.35" y2="85.1363" gradientUnits="userSpaceOnUse">
<stop stop-color="#444B8C"/>
<stop offset="0.9964" stop-color="#3E4177"/>
</linearGradient>
<linearGradient id="paint14_linear_117_4645" x1="148.705" y1="69.3586" x2="161.429" y2="115.921" gradientUnits="userSpaceOnUse">
<stop stop-color="#444B8C"/>
<stop offset="0.9964" stop-color="#3E4177"/>
</linearGradient>
<linearGradient id="paint15_linear_117_4645" x1="132.82" y1="92.6378" x2="177.284" y2="92.6378" gradientUnits="userSpaceOnUse">
<stop stop-color="#444B8C"/>
<stop offset="0.9964" stop-color="#3E4177"/>
</linearGradient>
<linearGradient id="paint16_linear_117_4645" x1="130.26" y1="93.9237" x2="163.557" y2="93.9237" gradientUnits="userSpaceOnUse">
<stop stop-color="#444B8C"/>
<stop offset="0.9964" stop-color="#3E4177"/>
</linearGradient>
<linearGradient id="paint17_linear_117_4645" x1="132.82" y1="92.9177" x2="177.284" y2="92.9177" gradientUnits="userSpaceOnUse">
<stop stop-color="#444B8C"/>
<stop offset="0.9964" stop-color="#3E4177"/>
</linearGradient>
<linearGradient id="paint18_linear_117_4645" x1="146.207" y1="128.135" x2="170.232" y2="112.119" gradientUnits="userSpaceOnUse">
<stop stop-color="#444B8C"/>
<stop offset="0.9964" stop-color="#3E4177"/>
</linearGradient>
<linearGradient id="paint19_linear_117_4645" x1="154.485" y1="107.051" x2="154.296" y2="95.5008" gradientUnits="userSpaceOnUse">
<stop stop-color="#444B8C"/>
<stop offset="0.9964" stop-color="#3E4177"/>
</linearGradient>
<linearGradient id="paint20_linear_117_4645" x1="154.567" y1="108.249" x2="154.504" y2="98.062" gradientUnits="userSpaceOnUse">
<stop stop-color="#444B8C"/>
<stop offset="0.9964" stop-color="#3E4177"/>
</linearGradient>
<linearGradient id="paint21_linear_117_4645" x1="153.716" y1="93.6591" x2="155.383" y2="73.588" gradientUnits="userSpaceOnUse">
<stop stop-color="#444B8C"/>
<stop offset="0.9964" stop-color="#3E4177"/>
</linearGradient>
<linearGradient id="paint22_linear_117_4645" x1="147.675" y1="93.219" x2="149.325" y2="73.3625" gradientUnits="userSpaceOnUse">
<stop stop-color="#444B8C"/>
<stop offset="0.9964" stop-color="#3E4177"/>
</linearGradient>
<linearGradient id="paint23_linear_117_4645" x1="160.579" y1="94.1323" x2="162.254" y2="73.9594" gradientUnits="userSpaceOnUse">
<stop stop-color="#444B8C"/>
<stop offset="0.9964" stop-color="#3E4177"/>
</linearGradient>
<linearGradient id="paint24_linear_117_4645" x1="153.243" y1="84.7892" x2="157.396" y2="71.911" gradientUnits="userSpaceOnUse">
<stop stop-color="#444B8C"/>
<stop offset="0.9964" stop-color="#3E4177"/>
</linearGradient>
<linearGradient id="paint25_linear_117_4645" x1="153.547" y1="84.8053" x2="157.761" y2="71.7368" gradientUnits="userSpaceOnUse">
<stop stop-color="#444B8C"/>
<stop offset="0.9964" stop-color="#3E4177"/>
</linearGradient>
<linearGradient id="paint26_linear_117_4645" x1="28.9047" y1="98.3079" x2="119.854" y2="98.3079" gradientUnits="userSpaceOnUse">
<stop stop-color="#444B8C"/>
<stop offset="0.9964" stop-color="#3E4177"/>
</linearGradient>
<linearGradient id="paint27_linear_117_4645" x1="34.242" y1="90.6104" x2="98.6485" y2="90.6104" gradientUnits="userSpaceOnUse">
<stop stop-color="#444B8C"/>
<stop offset="0.9964" stop-color="#3E4177"/>
</linearGradient>
<linearGradient id="paint28_linear_117_4645" x1="34.242" y1="98.9487" x2="98.6485" y2="98.9487" gradientUnits="userSpaceOnUse">
<stop stop-color="#444B8C"/>
<stop offset="0.9964" stop-color="#3E4177"/>
</linearGradient>
<linearGradient id="paint29_linear_117_4645" x1="34.242" y1="107.749" x2="69.4699" y2="107.749" gradientUnits="userSpaceOnUse">
<stop stop-color="#444B8C"/>
<stop offset="0.9964" stop-color="#3E4177"/>
</linearGradient>
<linearGradient id="paint30_linear_117_4645" x1="159.853" y1="151.255" x2="66.0103" y2="151.255" gradientUnits="userSpaceOnUse">
<stop stop-color="#AB316D"/>
<stop offset="1" stop-color="#792D3D"/>
</linearGradient>
<linearGradient id="paint31_linear_117_4645" x1="86.5504" y1="142.632" x2="154.515" y2="142.632" gradientUnits="userSpaceOnUse">
<stop stop-color="#AB316D"/>
<stop offset="1" stop-color="#792D3D"/>
</linearGradient>
<linearGradient id="paint32_linear_117_4645" x1="86.5499" y1="151.193" x2="154.515" y2="151.193" gradientUnits="userSpaceOnUse">
<stop stop-color="#AB316D"/>
<stop offset="1" stop-color="#792D3D"/>
</linearGradient>
<linearGradient id="paint33_linear_117_4645" x1="86.55" y1="159.812" x2="123.557" y2="159.812" gradientUnits="userSpaceOnUse">
<stop stop-color="#AB316D"/>
<stop offset="1" stop-color="#792D3D"/>
</linearGradient>
<linearGradient id="paint34_linear_117_4645" x1="62.4683" y1="237.445" x2="3.31606" y2="293.55" gradientUnits="userSpaceOnUse">
<stop stop-color="#AB316D"/>
<stop offset="1" stop-color="#792D3D"/>
</linearGradient>
<linearGradient id="paint35_linear_117_4645" x1="35.419" y1="234.828" x2="47.6884" y2="279.729" gradientUnits="userSpaceOnUse">
<stop stop-color="#AB316D"/>
<stop offset="1" stop-color="#792D3D"/>
</linearGradient>
<linearGradient id="paint36_linear_117_4645" x1="21.6388" y1="257.276" x2="61.4489" y2="257.276" gradientUnits="userSpaceOnUse">
<stop stop-color="#AB316D"/>
<stop offset="1" stop-color="#792D3D"/>
</linearGradient>
<linearGradient id="paint37_linear_117_4645" x1="19.3431" y1="258.116" x2="49.1677" y2="258.116" gradientUnits="userSpaceOnUse">
<stop stop-color="#AB316D"/>
<stop offset="1" stop-color="#792D3D"/>
</linearGradient>
<linearGradient id="paint38_linear_117_4645" x1="21.5919" y1="257.274" x2="61.4001" y2="257.274" gradientUnits="userSpaceOnUse">
<stop stop-color="#AB316D"/>
<stop offset="1" stop-color="#792D3D"/>
</linearGradient>
<linearGradient id="paint39_linear_117_4645" x1="54.2692" y1="239.108" x2="44.5367" y2="258.167" gradientUnits="userSpaceOnUse">
<stop stop-color="#AB316D"/>
<stop offset="1" stop-color="#792D3D"/>
</linearGradient>
<linearGradient id="paint40_linear_117_4645" x1="54.6748" y1="238.421" x2="44.7613" y2="257.835" gradientUnits="userSpaceOnUse">
<stop stop-color="#AB316D"/>
<stop offset="1" stop-color="#792D3D"/>
</linearGradient>
<linearGradient id="paint41_linear_117_4645" x1="46.381" y1="311.676" x2="40.4526" y2="268.696" gradientUnits="userSpaceOnUse">
<stop stop-color="#AB316D"/>
<stop offset="1" stop-color="#792D3D"/>
</linearGradient>
<linearGradient id="paint42_linear_117_4645" x1="42.0316" y1="275.078" x2="41.2168" y2="257.397" gradientUnits="userSpaceOnUse">
<stop stop-color="#AB316D"/>
<stop offset="1" stop-color="#792D3D"/>
</linearGradient>
<linearGradient id="paint43_linear_117_4645" x1="41.1355" y1="259.629" x2="41.4433" y2="247.847" gradientUnits="userSpaceOnUse">
<stop stop-color="#AB316D"/>
<stop offset="1" stop-color="#792D3D"/>
</linearGradient>
<linearGradient id="paint44_linear_117_4645" x1="36.241" y1="258.143" x2="36.5302" y2="247.072" gradientUnits="userSpaceOnUse">
<stop stop-color="#AB316D"/>
<stop offset="1" stop-color="#792D3D"/>
</linearGradient>
<linearGradient id="paint45_linear_117_4645" x1="45.8906" y1="258.892" x2="46.166" y2="248.348" gradientUnits="userSpaceOnUse">
<stop stop-color="#AB316D"/>
<stop offset="1" stop-color="#792D3D"/>
</linearGradient>
<linearGradient id="paint46_linear_117_4645" x1="159.141" y1="201.951" x2="162.151" y2="198.848" gradientUnits="userSpaceOnUse">
<stop stop-color="#444B8C"/>
<stop offset="0.9964" stop-color="#3E4177"/>
</linearGradient>
<linearGradient id="paint47_linear_117_4645" x1="148.603" y1="182.491" x2="161.531" y2="229.8" gradientUnits="userSpaceOnUse">
<stop stop-color="#444B8C"/>
<stop offset="0.9964" stop-color="#3E4177"/>
</linearGradient>
<linearGradient id="paint48_linear_117_4645" x1="132.82" y1="206.143" x2="177.284" y2="206.143" gradientUnits="userSpaceOnUse">
<stop stop-color="#444B8C"/>
<stop offset="0.9964" stop-color="#3E4177"/>
</linearGradient>
<linearGradient id="paint49_linear_117_4645" x1="130.26" y1="207.148" x2="163.557" y2="207.148" gradientUnits="userSpaceOnUse">
<stop stop-color="#444B8C"/>
<stop offset="0.9964" stop-color="#3E4177"/>
</linearGradient>
<linearGradient id="paint50_linear_117_4645" x1="132.82" y1="206.423" x2="177.284" y2="206.423" gradientUnits="userSpaceOnUse">
<stop stop-color="#444B8C"/>
<stop offset="0.9964" stop-color="#3E4177"/>
</linearGradient>
<linearGradient id="paint51_linear_117_4645" x1="146.568" y1="241.604" x2="169.95" y2="226.016" gradientUnits="userSpaceOnUse">
<stop stop-color="#444B8C"/>
<stop offset="0.9964" stop-color="#3E4177"/>
</linearGradient>
<linearGradient id="paint52_linear_117_4645" x1="154.486" y1="220.603" x2="154.281" y2="208.072" gradientUnits="userSpaceOnUse">
<stop stop-color="#444B8C"/>
<stop offset="0.9964" stop-color="#3E4177"/>
</linearGradient>
<linearGradient id="paint53_linear_117_4645" x1="154.568" y1="221.854" x2="154.503" y2="211.464" gradientUnits="userSpaceOnUse">
<stop stop-color="#444B8C"/>
<stop offset="0.9964" stop-color="#3E4177"/>
</linearGradient>
<linearGradient id="paint54_linear_117_4645" x1="153.723" y1="207.038" x2="155.373" y2="187.177" gradientUnits="userSpaceOnUse">
<stop stop-color="#444B8C"/>
<stop offset="0.9964" stop-color="#3E4177"/>
</linearGradient>
<linearGradient id="paint55_linear_117_4645" x1="147.672" y1="206.381" x2="149.343" y2="186.26" gradientUnits="userSpaceOnUse">
<stop stop-color="#444B8C"/>
<stop offset="0.9964" stop-color="#3E4177"/>
</linearGradient>
<linearGradient id="paint56_linear_117_4645" x1="160.585" y1="207.88" x2="162.233" y2="188.036" gradientUnits="userSpaceOnUse">
<stop stop-color="#444B8C"/>
<stop offset="0.9964" stop-color="#3E4177"/>
</linearGradient>
<linearGradient id="paint57_linear_117_4645" x1="153.253" y1="198.182" x2="157.244" y2="185.805" gradientUnits="userSpaceOnUse">
<stop stop-color="#444B8C"/>
<stop offset="0.9964" stop-color="#3E4177"/>
</linearGradient>
<linearGradient id="paint58_linear_117_4645" x1="153.523" y1="198.299" x2="157.492" y2="185.992" gradientUnits="userSpaceOnUse">
<stop stop-color="#444B8C"/>
<stop offset="0.9964" stop-color="#3E4177"/>
</linearGradient>
<linearGradient id="paint59_linear_117_4645" x1="28.9047" y1="207.936" x2="119.854" y2="207.936" gradientUnits="userSpaceOnUse">
<stop stop-color="#444B8C"/>
<stop offset="0.9964" stop-color="#3E4177"/>
</linearGradient>
<linearGradient id="paint60_linear_117_4645" x1="34.242" y1="199.413" x2="98.6485" y2="199.413" gradientUnits="userSpaceOnUse">
<stop stop-color="#444B8C"/>
<stop offset="0.9964" stop-color="#3E4177"/>
</linearGradient>
<linearGradient id="paint61_linear_117_4645" x1="34.242" y1="207.752" x2="98.6485" y2="207.752" gradientUnits="userSpaceOnUse">
<stop stop-color="#444B8C"/>
<stop offset="0.9964" stop-color="#3E4177"/>
</linearGradient>
<linearGradient id="paint62_linear_117_4645" x1="34.242" y1="215.739" x2="69.4699" y2="215.739" gradientUnits="userSpaceOnUse">
<stop stop-color="#444B8C"/>
<stop offset="0.9964" stop-color="#3E4177"/>
</linearGradient>
<linearGradient id="paint63_linear_117_4645" x1="159.853" y1="262.41" x2="66.0103" y2="262.41" gradientUnits="userSpaceOnUse">
<stop stop-color="#AB316D"/>
<stop offset="1" stop-color="#792D3D"/>
</linearGradient>
<linearGradient id="paint64_linear_117_4645" x1="86.5504" y1="254.281" x2="154.515" y2="254.281" gradientUnits="userSpaceOnUse">
<stop stop-color="#AB316D"/>
<stop offset="1" stop-color="#792D3D"/>
</linearGradient>
<linearGradient id="paint65_linear_117_4645" x1="86.5499" y1="262.841" x2="154.515" y2="262.841" gradientUnits="userSpaceOnUse">
<stop stop-color="#AB316D"/>
<stop offset="1" stop-color="#792D3D"/>
</linearGradient>
<linearGradient id="paint66_linear_117_4645" x1="86.55" y1="270.632" x2="123.557" y2="270.632" gradientUnits="userSpaceOnUse">
<stop stop-color="#AB316D"/>
<stop offset="1" stop-color="#792D3D"/>
</linearGradient>
<linearGradient id="paint67_linear_117_4645" x1="61.272" y1="128.048" x2="0.546981" y2="185.646" gradientUnits="userSpaceOnUse">
<stop stop-color="#FF9085"/>
<stop offset="1" stop-color="#FB6FBB"/>
</linearGradient>
<linearGradient id="paint68_linear_117_4645" x1="33.7605" y1="126.304" x2="45.8414" y2="170.516" gradientUnits="userSpaceOnUse">
<stop stop-color="#FF9085"/>
<stop offset="1" stop-color="#FB6FBB"/>
</linearGradient>
<linearGradient id="paint69_linear_117_4645" x1="52.7372" y1="129.719" x2="42.7036" y2="149.368" gradientUnits="userSpaceOnUse">
<stop stop-color="#AB316D"/>
<stop offset="1" stop-color="#792D3D"/>
</linearGradient>
<linearGradient id="paint70_linear_117_4645" x1="52.8426" y1="129.616" x2="42.7772" y2="149.328" gradientUnits="userSpaceOnUse">
<stop stop-color="#AB316D"/>
<stop offset="1" stop-color="#792D3D"/>
</linearGradient>
<linearGradient id="paint71_linear_117_4645" x1="44.4491" y1="201.435" x2="38.734" y2="160" gradientUnits="userSpaceOnUse">
<stop offset="0.00359712" stop-color="#E38DDD"/>
<stop offset="1" stop-color="#9571F6"/>
</linearGradient>
<linearGradient id="paint72_linear_117_4645" x1="40.2776" y1="166.178" x2="39.4695" y2="148.642" gradientUnits="userSpaceOnUse">
<stop stop-color="#FFC444"/>
<stop offset="0.9964" stop-color="#F36F56"/>
</linearGradient>
<linearGradient id="paint73_linear_117_4645" x1="39.3822" y1="150.773" x2="39.6911" y2="138.946" gradientUnits="userSpaceOnUse">
<stop stop-color="#FFC444"/>
<stop offset="0.9964" stop-color="#F36F56"/>
</linearGradient>
<linearGradient id="paint74_linear_117_4645" x1="34.49" y1="149.487" x2="34.773" y2="138.653" gradientUnits="userSpaceOnUse">
<stop stop-color="#FFC444"/>
<stop offset="0.9964" stop-color="#F36F56"/>
</linearGradient>
<linearGradient id="paint75_linear_117_4645" x1="44.1355" y1="149.855" x2="44.4168" y2="139.083" gradientUnits="userSpaceOnUse">
<stop stop-color="#FFC444"/>
<stop offset="0.9964" stop-color="#F36F56"/>
</linearGradient>
<linearGradient id="paint76_linear_117_4645" x1="157.503" y1="86.8587" x2="160.598" y2="83.6684" gradientUnits="userSpaceOnUse">
<stop offset="0.00359712" stop-color="#E38DDD"/>
<stop offset="1" stop-color="#9571F6"/>
</linearGradient>
<linearGradient id="paint77_linear_117_4645" x1="146.953" y1="67.8906" x2="159.676" y2="114.453" gradientUnits="userSpaceOnUse">
<stop offset="0.00359712" stop-color="#E38DDD"/>
<stop offset="1" stop-color="#9571F6"/>
</linearGradient>
<linearGradient id="paint78_linear_117_4645" x1="144.455" y1="126.667" x2="168.48" y2="110.651" gradientUnits="userSpaceOnUse">
<stop stop-color="#FF9085"/>
<stop offset="1" stop-color="#FB6FBB"/>
</linearGradient>
<linearGradient id="paint79_linear_117_4645" x1="152.732" y1="105.583" x2="152.543" y2="94.0328" gradientUnits="userSpaceOnUse">
<stop stop-color="#FF9085"/>
<stop offset="1" stop-color="#FB6FBB"/>
</linearGradient>
<linearGradient id="paint80_linear_117_4645" x1="152.815" y1="106.781" x2="152.751" y2="96.594" gradientUnits="userSpaceOnUse">
<stop stop-color="#AB316D"/>
<stop offset="1" stop-color="#792D3D"/>
</linearGradient>
<linearGradient id="paint81_linear_117_4645" x1="151.963" y1="92.1912" x2="153.631" y2="72.1201" gradientUnits="userSpaceOnUse">
<stop stop-color="#AB316D"/>
<stop offset="1" stop-color="#792D3D"/>
</linearGradient>
<linearGradient id="paint82_linear_117_4645" x1="145.923" y1="91.751" x2="147.572" y2="71.8945" gradientUnits="userSpaceOnUse">
<stop stop-color="#AB316D"/>
<stop offset="1" stop-color="#792D3D"/>
</linearGradient>
<linearGradient id="paint83_linear_117_4645" x1="158.826" y1="92.6643" x2="160.502" y2="72.4914" gradientUnits="userSpaceOnUse">
<stop stop-color="#AB316D"/>
<stop offset="1" stop-color="#792D3D"/>
</linearGradient>
<linearGradient id="paint84_linear_117_4645" x1="151.491" y1="83.3212" x2="155.643" y2="70.443" gradientUnits="userSpaceOnUse">
<stop stop-color="#311944"/>
<stop offset="1" stop-color="#6B3976"/>
</linearGradient>
<linearGradient id="paint85_linear_117_4645" x1="151.794" y1="83.3373" x2="156.007" y2="70.2688" gradientUnits="userSpaceOnUse">
<stop stop-color="#311944"/>
<stop offset="1" stop-color="#6B3976"/>
</linearGradient>
<linearGradient id="paint86_linear_117_4645" x1="158.073" y1="149.787" x2="64.2561" y2="149.787" gradientUnits="userSpaceOnUse">
<stop stop-color="#FF9085"/>
<stop offset="1" stop-color="#FB6FBB"/>
</linearGradient>
<linearGradient id="paint87_linear_117_4645" x1="60.716" y1="235.977" x2="1.56372" y2="292.082" gradientUnits="userSpaceOnUse">
<stop stop-color="#FF9085"/>
<stop offset="1" stop-color="#FB6FBB"/>
</linearGradient>
<linearGradient id="paint88_linear_117_4645" x1="33.6662" y1="233.36" x2="45.9357" y2="278.261" gradientUnits="userSpaceOnUse">
<stop stop-color="#FF9085"/>
<stop offset="1" stop-color="#FB6FBB"/>
</linearGradient>
<linearGradient id="paint89_linear_117_4645" x1="52.5164" y1="237.64" x2="42.7839" y2="256.699" gradientUnits="userSpaceOnUse">
<stop stop-color="#AB316D"/>
<stop offset="1" stop-color="#792D3D"/>
</linearGradient>
<linearGradient id="paint90_linear_117_4645" x1="52.922" y1="236.953" x2="43.0085" y2="256.367" gradientUnits="userSpaceOnUse">
<stop stop-color="#AB316D"/>
<stop offset="1" stop-color="#792D3D"/>
</linearGradient>
<linearGradient id="paint91_linear_117_4645" x1="44.6281" y1="310.208" x2="38.6998" y2="267.228" gradientUnits="userSpaceOnUse">
<stop offset="0.00359712" stop-color="#E38DDD"/>
<stop offset="1" stop-color="#9571F6"/>
</linearGradient>
<linearGradient id="paint92_linear_117_4645" x1="40.2788" y1="273.61" x2="39.464" y2="255.928" gradientUnits="userSpaceOnUse">
<stop stop-color="#FFC444"/>
<stop offset="0.9964" stop-color="#F36F56"/>
</linearGradient>
<linearGradient id="paint93_linear_117_4645" x1="39.3822" y1="258.161" x2="39.69" y2="246.379" gradientUnits="userSpaceOnUse">
<stop stop-color="#FFC444"/>
<stop offset="0.9964" stop-color="#F36F56"/>
</linearGradient>
<linearGradient id="paint94_linear_117_4645" x1="34.4882" y1="256.675" x2="34.7774" y2="245.604" gradientUnits="userSpaceOnUse">
<stop stop-color="#FFC444"/>
<stop offset="0.9964" stop-color="#F36F56"/>
</linearGradient>
<linearGradient id="paint95_linear_117_4645" x1="44.1373" y1="257.424" x2="44.4127" y2="246.88" gradientUnits="userSpaceOnUse">
<stop stop-color="#FFC444"/>
<stop offset="0.9964" stop-color="#F36F56"/>
</linearGradient>
<linearGradient id="paint96_linear_117_4645" x1="157.389" y1="200.483" x2="160.399" y2="197.38" gradientUnits="userSpaceOnUse">
<stop offset="0.00359712" stop-color="#E38DDD"/>
<stop offset="1" stop-color="#9571F6"/>
</linearGradient>
<linearGradient id="paint97_linear_117_4645" x1="146.851" y1="181.023" x2="159.778" y2="228.332" gradientUnits="userSpaceOnUse">
<stop offset="0.00359712" stop-color="#E38DDD"/>
<stop offset="1" stop-color="#9571F6"/>
</linearGradient>
<linearGradient id="paint98_linear_117_4645" x1="144.815" y1="240.136" x2="168.197" y2="224.548" gradientUnits="userSpaceOnUse">
<stop stop-color="#FF9085"/>
<stop offset="1" stop-color="#FB6FBB"/>
</linearGradient>
<linearGradient id="paint99_linear_117_4645" x1="152.733" y1="219.135" x2="152.528" y2="206.604" gradientUnits="userSpaceOnUse">
<stop stop-color="#FF9085"/>
<stop offset="1" stop-color="#FB6FBB"/>
</linearGradient>
<linearGradient id="paint100_linear_117_4645" x1="152.816" y1="220.386" x2="152.751" y2="209.996" gradientUnits="userSpaceOnUse">
<stop stop-color="#AB316D"/>
<stop offset="1" stop-color="#792D3D"/>
</linearGradient>
<linearGradient id="paint101_linear_117_4645" x1="151.971" y1="205.57" x2="153.62" y2="185.709" gradientUnits="userSpaceOnUse">
<stop stop-color="#AB316D"/>
<stop offset="1" stop-color="#792D3D"/>
</linearGradient>
<linearGradient id="paint102_linear_117_4645" x1="145.92" y1="204.913" x2="147.591" y2="184.793" gradientUnits="userSpaceOnUse">
<stop stop-color="#AB316D"/>
<stop offset="1" stop-color="#792D3D"/>
</linearGradient>
<linearGradient id="paint103_linear_117_4645" x1="158.832" y1="206.412" x2="160.481" y2="186.568" gradientUnits="userSpaceOnUse">
<stop stop-color="#AB316D"/>
<stop offset="1" stop-color="#792D3D"/>
</linearGradient>
<linearGradient id="paint104_linear_117_4645" x1="151.5" y1="196.714" x2="155.491" y2="184.337" gradientUnits="userSpaceOnUse">
<stop stop-color="#311944"/>
<stop offset="1" stop-color="#6B3976"/>
</linearGradient>
<linearGradient id="paint105_linear_117_4645" x1="151.77" y1="196.831" x2="155.738" y2="184.524" gradientUnits="userSpaceOnUse">
<stop stop-color="#311944"/>
<stop offset="1" stop-color="#6B3976"/>
</linearGradient>
<linearGradient id="paint106_linear_117_4645" x1="158.073" y1="260.942" x2="64.2561" y2="260.942" gradientUnits="userSpaceOnUse">
<stop stop-color="#FF9085"/>
<stop offset="1" stop-color="#FB6FBB"/>
</linearGradient>
<linearGradient id="paint107_linear_117_4645" x1="246.511" y1="245.301" x2="207.026" y2="245.301" gradientUnits="userSpaceOnUse">
<stop stop-color="#444B8C"/>
<stop offset="0.9964" stop-color="#3E4177"/>
</linearGradient>
<linearGradient id="paint108_linear_117_4645" x1="223.132" y1="281.673" x2="229.117" y2="317.042" gradientUnits="userSpaceOnUse">
<stop stop-color="#444B8C"/>
<stop offset="0.9964" stop-color="#26264F"/>
</linearGradient>
<linearGradient id="paint109_linear_117_4645" x1="219.567" y1="287.716" x2="224.722" y2="319.989" gradientUnits="userSpaceOnUse">
<stop stop-color="#311944"/>
<stop offset="1" stop-color="#A03976"/>
</linearGradient>
<linearGradient id="paint110_linear_117_4645" x1="246.511" y1="245.304" x2="207.026" y2="245.304" gradientUnits="userSpaceOnUse">
<stop stop-color="#444B8C"/>
<stop offset="0.9964" stop-color="#3E4177"/>
</linearGradient>
<linearGradient id="paint111_linear_117_4645" x1="224.631" y1="262.261" x2="190.869" y2="262.261" gradientUnits="userSpaceOnUse">
<stop stop-color="#444B8C"/>
<stop offset="0.9964" stop-color="#3E4177"/>
</linearGradient>
<linearGradient id="paint112_linear_117_4645" x1="176.977" y1="193.287" x2="253.04" y2="193.287" gradientUnits="userSpaceOnUse">
<stop stop-color="#FF9085"/>
<stop offset="1" stop-color="#FB6FBB"/>
</linearGradient>
<linearGradient id="paint113_linear_117_4645" x1="234.369" y1="193.383" x2="248.77" y2="193.383" gradientUnits="userSpaceOnUse">
<stop stop-color="#FF9085"/>
<stop offset="1" stop-color="#FB6FBB"/>
</linearGradient>
<linearGradient id="paint114_linear_117_4645" x1="209.782" y1="181.327" x2="215.774" y2="191.446" gradientUnits="userSpaceOnUse">
<stop stop-color="#311944"/>
<stop offset="1" stop-color="#A03976"/>
</linearGradient>
<linearGradient id="paint115_linear_117_4645" x1="176.977" y1="198.011" x2="228.126" y2="198.011" gradientUnits="userSpaceOnUse">
<stop stop-color="#FF9085"/>
<stop offset="1" stop-color="#FB6FBB"/>
</linearGradient>
<linearGradient id="paint116_linear_117_4645" x1="172.427" y1="181.754" x2="212.864" y2="181.754" gradientUnits="userSpaceOnUse">
<stop stop-color="#FF9085"/>
<stop offset="1" stop-color="#FB6FBB"/>
</linearGradient>
<linearGradient id="paint117_linear_117_4645" x1="244.348" y1="194.102" x2="222.876" y2="177.923" gradientUnits="userSpaceOnUse">
<stop stop-color="#444B8C"/>
<stop offset="0.9964" stop-color="#26264F"/>
</linearGradient>
<linearGradient id="paint118_linear_117_4645" x1="234.639" y1="178.205" x2="224.43" y2="196.614" gradientUnits="userSpaceOnUse">
<stop stop-color="#444B8C"/>
<stop offset="0.9964" stop-color="#26264F"/>
</linearGradient>
<linearGradient id="paint119_linear_117_4645" x1="221.553" y1="172.732" x2="237.447" y2="211.217" gradientUnits="userSpaceOnUse">
<stop stop-color="#444B8C"/>
<stop offset="0.9964" stop-color="#26264F"/>
</linearGradient>
<linearGradient id="paint120_linear_117_4645" x1="210.366" y1="140.763" x2="213.205" y2="164.968" gradientUnits="userSpaceOnUse">
<stop stop-color="#311944"/>
<stop offset="1" stop-color="#A03976"/>
</linearGradient>
<linearGradient id="paint121_linear_117_4645" x1="236.761" y1="189.079" x2="229.93" y2="189.079" gradientUnits="userSpaceOnUse">
<stop stop-color="#311944"/>
<stop offset="1" stop-color="#A03976"/>
</linearGradient>
<linearGradient id="paint122_linear_117_4645" x1="222.454" y1="139.908" x2="218.659" y2="151.193" gradientUnits="userSpaceOnUse">
<stop stop-color="#444B8C"/>
<stop offset="0.9964" stop-color="#26264F"/>
</linearGradient>
<linearGradient id="paint123_linear_117_4645" x1="212.933" y1="144.035" x2="215.622" y2="150.758" gradientUnits="userSpaceOnUse">
<stop stop-color="#311944"/>
<stop offset="1" stop-color="#A03976"/>
</linearGradient>
</defs>
</svg>
